<?xml version="1.0" encoding="UTF-8"?>
<svg xmlns="http://www.w3.org/2000/svg" version="1.1" viewBox="0 0 760.7 293.7">
  <defs>
    <style>
      .cls-1 {
        fill-rule: evenodd;
      }
    </style>
  </defs>
  <!-- Generator: Adobe Illustrator 28.7.1, SVG Export Plug-In . SVG Version: 1.2.0 Build 142)  -->
  <g>
    <g id="CE_LOGO">
      <g id="_ae2573">
        <g>
          <path class="cls-1" d="M520.5,91.7c.6,0,1.2.7,1.8,1.1-.5.3-1.1.7-1.8,1.1-.7-.4-1.2-.8-1.7-1.1.6-.4,1.2-1.1,1.7-1"/>
          <path class="cls-1" d="M527.5,85.9c1.5.5,3,.8,4.2,1.5,1.1.6.9,2,.3,2.9-.5.6-1.7,1.3-2.3,1.1-1.6-.5-3.1-1.4-4.5-2.3-.3-.2-.3-1.4,0-1.8.6-.6,1.5-.9,2.4-1.4"/>
          <path class="cls-1" d="M456.2,222.2c-8.7,0-17.5-.3-26.2-.5-3.9-.1-29-2.8-32,5.5-1,2.8-.5,4.2-.4,6,.6,7.1,3.8,10.2,10,10.2,7.3,0,14.7,0,22,0v.4c9.2,0,18.5.2,27.7,0,7.3-.2,10.1-3.3,10-10.6-.1-9.1-2.1-10.8-11-10.8M419.5,227.3c-.8.5-1.7.4-2.3-.6.8-.5,1.4-1.5,2.3-.5.2.2.2,1,0,1.1"/>
          <path d="M477.3,201.8c-10-24.1-11.5-29-11.6-29.8,0-.5,0-1.2.2-2l1.1-3.5c.4-1.4.7-2.5.9-3.5,1.2-5.1,1.7-10.3,2.1-15.3.1-1.6.3-3.3.5-4.9.2-1.8.5-3.5.7-5.2.5-3.1,1-6.4,1-9.6v-6.6c0-2.2-.1-2.9-.2-3.2-.1-.6-.1-.8-.1-.8,0-1.7-.5-3-1.6-3.6-.6-.4-1.9-.9-6-.9h-6c-3,0-4,.3-4.5.6-1.4.7-1.4,2.7-1.4,3.4v1.4c0,.6,0,1.7.1,3.2,0,1.5.1,3.6.1,6.3,0,7.9-.5,9.9-.8,10.5-.2-.4-.5-1.1-1.2-2.6-2.8-6.1-6.5-15.5-11-28-.5-1.8-.8-3.3-.8-4.3s0-.9,2.3-3.6c13.8-16.6,20.8-31.4,21-44l.7-8.4-.7-10.4c0-5.4-1.5-10.3-2.9-14.4v-.2c-1.2-3.3-2.4-6.8-4.6-9.9-5-7.2-13.2-10.8-24.3-10.8s-18.5,3.7-24.3,11c-5.3,6.7-7.9,14.9-7.9,24.3s-.2,2-.4,3.1c-.3,2.1-.7,4.4-.2,7.1,2,11,7.8,26.3,15.2,45.8l.2.5c.7,2,1.1,3.9,1.1,5.7s-.6,2.4-1.7,3.9c-10.7,12.6-16.2,24-16.2,33.8v36.2c0,10,2.9,18.3,8.5,24.6,5.7,6.3,13.3,9.6,22.7,9.6s16-3.4,21.8-10.1c.6-.6,1.2-1.3,1.7-2,.6-.9.8-1.1.9-1.2.1-.1.3-.3.5-.4,0,0,0,0,0,0l.2.2h.4c.1.4.3.7.5,1.1.1.2.2.4.3.7.1.4.2.9.5,1.5.2.5.3,1,.4,1.4.1.6.3,1.2.6,2,.3.7.5,1.4.7,2.2.7,2.4,3,3.6,6.7,3.6h11.4c3.3,0,3.6-1.9,3.6-2.8s-.1-1.1-.4-1.6M410.9,50.8c-.3.4-1.2.9-1.6.8-1.1-.4-2.2-1-3.2-1.7-.2-.1-.2-1,0-1.3.4-.4,1-.7,1.7-1,1.1.4,2.1.6,3,1.1.8.4.6,1.4.2,2M422.1,25.6c2.6-2.8,5.3-4.1,8.5-4.1s6.6,1.2,8.9,3.8c2.3,2.6,3.4,6.1,3.4,10.4v20.1c0,6.3-2.7,13.5-8.1,21.6-2,3.2-3.2,3.5-3.7,3.5s-1.5,0-2.1-2.5c-7.1-21.1-10.8-35.4-10.8-42.5s1.3-7.6,3.9-10.4M441.4,177.7c-4,5.5-8.6,8.2-13.9,8.2s-6.4-1-8-2.9c-1.7-2-2.6-6-2.6-11.8v-34.8c0-4.2,1.5-8.6,4.4-13.2,1.3-2,1.9-2.1,2-2.1,0,0,.8.3,1.9,3.4l17.1,41.4c.7,1.6,1,3.5,1,5.6s-.6,4.4-1.8,6.3"/>
          <path class="cls-1" d="M536.6,293.2c-7.5,0-15.1,0-22.6,0-6.2,0-9.5-3.1-10.1-10.1-.5-5.3-.7-10.7-.5-16.1.5-12.6.3-145.8-.7-158.4-1.1-14.2.2-28.3,1.2-42.4.5-6.6-.3-13.2-.3-19.8.1-11.2.3-22.4.8-33.6.2-4.7,3.6-7.5,8.1-8.4,3.8-.8,7.8-1.2,11.7-1.2,11.1-.1,22.1,0,33.2.2,3.6,0,7.2.4,10.7,1,3.5.5,5.7,2.8,6.1,6.4.4,2.9.5,5.8.4,8.7-.1,3.8-2.4,6.2-6.3,6.5-3.9.3-7.9.3-11.8.3-6.6,0-13.2,0-19.8.2-5.4.2-7.8,2.5-8.2,7.8-.3,4.5-.4,9-.4,13.6,0,6.9.3,13.7.4,20.6,0,5.8,1.9,7.7,7.7,7.9,7.2.2,14.4.2,21.6.3,5.2,0,6.9,4.8,6.3,8.3-.5,2.9-1,5.7-1.4,8.6-.4,2.7-2,4-4.5,4.2-4,.3-8,.4-12,.6-3.7.2-7.4.2-11,.5-4.5.4-5.9,2.2-6,6.6-.2,8.3-.6,137.2-.8,145.5,0,4.2,0,8.4.4,12.5.5,5.2,3,7.6,8.3,7.8,8.9.3,17.8.5,26.6.5s11,1.8,11.2,10.7c.1,7.5-2.6,10.7-10.2,10.9-9.3.2-18.6,0-27.9,0v-.4h0ZM546.2,87.2c-.5.2-.9.4-1.4.6.4,1,.7,2.1,1.1,3.1.5-.2,1.1-.4,1.6-.7-.4-1-.9-2-1.3-2.9"/>
          <path d="M644.8,275.6c0,.2,1.1.7,1.7,1.1.4-.8.8-1.5,1.2-2.3-.4-.2-.8-.4-1.3-.6-.6.6-1.3,1.1-1.6,1.8"/>
          <path d="M668.1,4c-1.5,0-3.1-.3-4.6-.6-7.1-1.4-15.5.4-16.8,6.2-1.6,7.3-16.5,241-17.2,243.2-.3.9-.1,2.3-1,2.3-1,0-.3-5.6-.6-7.3-.9-4.8-15.1-229.6-17.3-239.3-.8-3.6-5.8-5.5-10.5-5.8-1.5-.1-3-.2-4.8-.3-1.5,0-3.5.2-5.3.3-3.7.4-5.7,1.8-5.6,4.8,0,4.1.2,8.3,1,12.4,1.6,9,20.2,250.1,23.6,266.9.9,4.2,2.8,5.6,8.1,5.9,3,.2,6.1.5,9.1.6,4.9.1,9.8.4,14.6.2,4.1-.2,7.8-1.4,8.7-5.2,1.3-5.1,3.2-10.3,3.3-15.5.2-11.9,20.4-257.8,21.5-263,.8-3.5-1.6-5.6-6-5.8M604.1,25c-.8.4-1.7.4-2.4-.6.8-.5,1.4-1.5,2.3-.4.2.2.2,1,0,1.1M646.4,276.7c-.6-.4-1.8-.9-1.7-1.1.3-.6,1-1.2,1.5-1.7.4.2.8.4,1.3.6-.4.8-.8,1.5-1.1,2.3"/>
          <path d="M722.7,26.5c6.6-.2,13.2-.1,19.8-.2,3.9,0,7.9,0,11.8-.3,3.9-.3,6.2-2.7,6.3-6.5.1-2.9,0-5.9-.4-8.8-.5-3.5-2.6-5.8-6.2-6.4-3.5-.5-7.2-.9-10.7-1-11-.2-22.1-.3-33.2-.2-3.9,0-7.9.4-11.7,1.2-4.5.9-7.8,3.7-8.1,8.4-.5,11.2-.7,22.4-.8,33.6,0,6.6.8,13.3.3,19.8-1,14.1-2.3,28.2-1.2,42.4,1,12.5,1.2,145.8.7,158.4-.2,5.3,0,10.7.5,16.1.6,7,3.9,10.1,10,10.1,7.5,0,15.1,0,22.6,0v.4c9.3,0,18.6.2,27.9,0,7.6-.2,10.3-3.3,10.2-10.9-.2-8.9-2.2-10.7-11.1-10.7s-17.8-.3-26.6-.5c-5.3-.2-7.9-2.5-8.3-7.8-.4-4.2-.5-8.4-.4-12.5.2-8.3.6-137.2.8-145.5.1-4.5,1.5-6.2,6.1-6.6,3.7-.3,7.4-.3,11-.5,4-.2,8-.3,12-.6,2.5-.2,4.2-1.6,4.5-4.2.4-2.9.9-5.8,1.4-8.6.6-3.5-1.1-8.3-6.3-8.3-7.2,0-14.4,0-21.6-.3-5.8-.2-7.5-2.1-7.7-7.9-.1-6.9-.3-13.8-.4-20.6,0-4.5,0-9,.4-13.6.4-5.3,2.8-7.6,8.2-7.8M703.4,18.1c-.6-.4-1.1-.7-1.6-1.1.5-.3,1.1-1,1.6-1,.6,0,1.1.6,1.7,1-.5.3-1,.6-1.7,1M745.2,282.1c.4-.4,1.1-.6,1.7-1,1.1.4,2.1.6,3,1.1.8.5.6,1.5.2,2-.3.5-1.2.9-1.7.8-1.2-.4-2.2-1-3.2-1.6-.2-.1-.2-1,0-1.3M741.9,285.2c.4,0,.9.5,1.3.8-.4.2-.8.5-1.3.8-.5-.3-.8-.6-1.2-.8.4-.3.8-.8,1.2-.7"/>
          <path class="cls-1" d="M172.4,86.1c0,14.4,0,149.1,0,163.5,0,7.8-.9,15.4-4.2,22.7-5.3,11.8-14.1,18.6-26.9,20.6-11.9,1.9-22.8-.2-32.6-7.1-8.4-5.8-12.8-14-13.5-24.2-.5-7.4-1.1-14.8.2-22.2.3-1.5-.2-3.1-.2-4.7,0-14.5,0-149.4-.1-164,0-9.8-.3-19.5-.5-29.3-.1-10,1.6-19.5,7.4-27.8,5.1-7.3,12.2-11.1,21.1-11.7,2.7-.2,5.5-.5,8.2-1.1,14.1-2.7,25.2,1.7,33.5,13.5,4.9,7.1,7.4,14.8,7.3,23.5-.1,16.1,0,32.2,0,48.4h.4,0ZM148.3,60h-.4c0-5.5.2-11,0-16.5-.2-3.8-.5-7.7-1.6-11.3-3.2-10.4-13.9-13.9-22-7.3-4.4,3.6-6.2,8.7-6.4,14.2-.2,6.7-.1,13.4,0,20.1,0,6.3.1,12.5.4,18.8.4,10.3,1.2,141.1-1.4,151.3-.3,1.3-.3,2.6-.2,4,.5,6.7,1,13.5,1.7,20.2.3,3,.9,5.9,1.8,8.8,2.9,9.4,14,10.7,20.2,6.9,5.7-3.5,7.1-9.3,7-15.5,0-7.7-.4-15.4-.6-23-.2-7-.9-14,1.4-20.9.5-1.4.3-123.4.3-124.9,0-8.3,0-16.6,0-24.8M151.7,215.8c-.4,0-.7,0-1,0-.4.9-1.3,1.8-1.2,2.7.1,1,1.1,1.9,1.6,2.8.9-.9,2.3-1.6,2.4-2.6.1-.9-1.2-1.9-1.8-2.9"/>
          <path class="cls-1" d="M360.5,86.2c0,14.4,0,149.1,0,163.5,0,7.7-.9,15.3-4.1,22.5-5.2,11.8-13.9,18.7-26.8,20.8-11.9,1.9-22.8-.1-32.6-6.9-8.5-5.8-13-14.1-13.7-24.4-.5-7.4-1.1-14.8.2-22.2.3-1.5-.2-3.2-.2-4.7,0-14.5,0-149.4-.1-164,0-9.8-.3-19.5-.5-29.3-.1-9.9,1.5-19.3,7.3-27.6,5.1-7.5,12.2-11.3,21.3-11.8,2.7-.2,5.5-.6,8.2-1.1,14.1-2.7,25.2,1.8,33.5,13.6,4.9,7.1,7.3,14.8,7.3,23.5-.1,16.1,0,32.2,0,48.4h.4,0ZM336.4,60h-.4c0-5.5.2-11,0-16.5-.2-3.8-.5-7.7-1.6-11.3-3.2-10.4-14-13.8-22-7.2-4.4,3.7-6.4,8.8-6.4,14.4-.2,11.1,0,22.2,0,33.3,0,1.7.2,3.5.3,5.3.5,10.3,1.2,141.1-1.3,151.3-.3,1.3-.3,2.6-.2,4,.5,6.8,1,13.5,1.7,20.2.3,3,.9,5.9,1.8,8.8,2.9,9.4,14,10.7,20.2,6.9,5.7-3.5,7.1-9.3,7-15.5,0-7.8-.4-15.5-.6-23.3-.2-6.8-.9-13.7,1.3-20.4.5-1.5.4-123.5.4-125.1,0-8.3,0-16.5,0-24.8M339.7,215.7c-.3,0-.7,0-1,.1-.4.9-1,1.8-1.1,2.8,0,1.2,0,2.9,1.8,2.5,1-.2,2.2-1.6,2.3-2.6,0-.9-1.3-1.9-2-2.8"/>
          <path class="cls-1" d="M214.5,68.1c0,20,0,160.3,0,180.3,0,3.1,0,6.2.5,9.3.8,5.7,4.3,9.3,9.7,11,4.6,1.4,9,.8,12.4-2.9,2.9-3.1,3.7-7,3.6-11.1-.1-5.7-.4-11.4-.2-17,.2-6.9,2.5-9.2,9.4-9.7,2.9-.2,5.9,0,8.7.3,3.1.4,5.7,2,6.1,5.4,1.8,14.5,1.5,28.9-5,42.4-4.4,9.4-12,14.3-22.2,16.4-11,2.3-21.3,1.5-31.3-3.9-8.9-4.9-14.3-12.4-15.9-22.4-1-6.3-1.8-12.6-2.3-18.9-.2-3.2-.1-6.7.9-9.7,1.3-4.1.9-8,.4-12.1-.5-3.7-1-7.5-.9-11.2.2-17.8,0-156,1.1-173.7.7-10.8,3.4-21.7,11.7-29.6,8.3-8,18.6-11.1,30.1-9.8,6.5.8,12.8,2.5,18.2,6.3,8,5.5,12.2,13.5,14.5,22.7,1.8,7.5,2,15.1,1.5,22.7-.4,5.6-2.9,8.2-8.5,8.6-3.2.2-6.5-.4-9.6-1-2.7-.6-4.5-2.5-4.9-5.4-.9-6-1.5-12.1-2.5-18-.6-4-2-7.7-5.8-9.8-6.7-3.8-14.3-1.1-17.4,6-2.4,5.4-2.6,11.2-2.7,16.9-.2,6,0,12,0,18.1h.4,0ZM199.7,81.2c-.4,2.9.6,4.6,2.6,4.5.7,0,1.9-1.1,2-1.7.2-1.7-1.8-2.8-4.6-2.8"/>
          <path class="cls-1" d="M26.4,68.1c0,20,0,160.3,0,180.3,0,3.1,0,6.2.5,9.3.8,5.6,4.3,9.3,9.7,11,4.6,1.4,9,.8,12.4-2.9,2.9-3.1,3.7-7,3.6-11.1-.1-5.7-.4-11.4-.2-17,.2-6.9,2.5-9.2,9.4-9.7,2.9-.2,5.8,0,8.7.3,3.1.4,5.7,2,6.1,5.4,1.8,14.5,1.4,28.9-5,42.4-4.4,9.4-12,14.3-22.2,16.4-11,2.3-21.3,1.5-31.3-3.9-8.9-4.9-14.3-12.4-15.9-22.4-1-6.3-1.8-12.6-2.3-18.9-.2-3.2-.1-6.7.8-9.7,1.3-4.1.9-8,.4-12.1-.5-3.7-1-7.5-.9-11.2.2-17.8,0-156,1.1-173.7.7-10.8,3.4-21.7,11.7-29.6C21.5,2.8,31.8-.3,43.3,1.1c6.5.8,12.8,2.5,18.3,6.3,8,5.5,12.2,13.5,14.4,22.7,1.8,7.5,2.1,15.1,1.5,22.7-.4,5.6-2.8,8.2-8.5,8.6-3.2.2-6.5-.4-9.6-1-2.7-.6-4.5-2.5-4.9-5.4-.9-6-1.6-12-2.5-18-.6-3.9-1.9-7.5-5.6-9.6-6.8-3.9-14.5-1.3-17.7,5.9-2.4,5.4-2.5,11.2-2.8,16.9-.1,3,.1,6,.2,9s0,6,0,9h.2ZM11.6,81.2c-.4,2.9.5,4.6,2.6,4.5.7,0,1.9-1,2-1.7.3-1.7-1.7-2.8-4.6-2.8"/>
        </g>
      </g>
    </g>
  </g>
</svg>