<svg xmlns="http://www.w3.org/2000/svg" id="Layer_1" viewBox="0 0 497.6 71.72"><defs><style>.cls-1{fill:#231f20;stroke-width:0}</style></defs><path d="M151.18 64.65c.57-.49.89-1.23.89-2.1 0-1.4-.63-3.07-3.65-3.07h-7.03v11.94h7.39c2.53 0 4.1-1.41 4.1-3.67 0-1.32-.57-2.36-1.7-3.1m-2.64-.62h-5.31v-2.82h5.31c1.13 0 1.65.45 1.65 1.42s-.56 1.4-1.65 1.4m.52 5.65h-5.83v-3.91h5.83c1.2 0 1.91.73 1.91 1.95s-.71 1.95-1.91 1.95ZM163.63 65.92h4.62v-1.74h-4.62v-2.97h7.63v-1.74h-9.48v11.95h9.96v-1.74h-8.11zM184.22 68.45l-4.32-8.98h-2.02l5.76 11.95h1.16l5.79-11.95h-2.05zM199.9 65.92h4.63v-1.74h-4.63v-2.97h7.64v-1.74h-9.48v11.95h9.95v-1.74h-8.11zM226.74 62.89c0-2.14-1.43-3.41-3.82-3.41h-6.82v11.94h1.85v-5.05h4.14l2.89 5.05h2.06l-2.92-5.13c1.58-.4 2.63-1.73 2.63-3.39Zm-8.79-1.68h4.95c1.25 0 1.93.61 1.93 1.72s-.67 1.68-2 1.68h-4.88v-3.39ZM237.21 59.47h-1.85v11.95h9.38v-1.74h-7.53zM254.23 63.93l-4.04-4.46h-2.35l5.45 6.04v5.91h1.85v-5.88l5.48-6.07h-2.38zM288.84 64.03h-6.39v-4.56h-1.87v11.95h1.87v-5.65h6.39v5.65h1.85V59.47h-1.85zM300.21 59.41h1.87v12.05h-1.87zM313.39 59.47h-1.84v11.95h9.37v-1.74h-7.53zM330.52 59.47h-1.85v11.95h9.38v-1.74h-7.53zM352.23 64.18c-.6-.07-1.18-.1-1.69-.13-1.29-.08-2.3-.14-2.96-.64-.33-.25-.48-.52-.48-.86 0-.89 1.2-1.57 2.79-1.57s3.14.57 4.53 1.69l.17.14 1.08-1.55-.16-.12c-1.72-1.26-3.67-1.92-5.64-1.92-2.75 0-4.68 1.4-4.68 3.39 0 1.11.63 2.02 1.77 2.56 1.07.49 2.34.57 3.95.68l.86.06c1.57.13 2.51.82 2.51 1.85 0 1.3-1.39 2.21-3.39 2.21-1.67 0-3.45-.68-5.03-1.9l-.18-.14-1.06 1.59.15.12c1.8 1.4 3.81 2.08 6.14 2.08 3.64 0 5.3-2.02 5.3-3.91s-1.57-3.35-3.99-3.63ZM124.01.92h-5.69c-.88 0-1.36.4-1.36 1.13 0 .9.66 1.1 1.29 1.29.09.03.18.05.27.08.66.18 1.03.32 1.15.97.12.44.1 1.3.1 1.92v19.4c-2.42-3.95-4.79-7.75-7.23-11.01l-2.35-3.12c-.08-.11-7.91-10.66-9.53-10.66h-5.31c-1.21 0-1.46.55-1.46 1.01 0 .83.77 1 1.34 1.12l.19.04c1.94.39 1.94 1.79 1.94 3.56v22.68c0 .29 0 .54.01.78.04 1.62.05 2.05-1.91 2.43-.6.14-1.2.39-1.2 1.23 0 .73.5 1.16 1.33 1.16h6.28c.8 0 1.31-.46 1.31-1.16 0-1.02-.67-1.18-1.44-1.35l-.12-.03c-1.25-.34-1.3-.86-1.3-2.09V5.72c4.86 5.21 8.78 11.28 12.57 17.15.37.57.74 1.15 1.11 1.72.65 1.01 1.35 2.02 2.02 2.99 1.47 2.12 2.98 4.32 4.15 6.66l.02.03c.24.47.69 1.35 1.39 1.35q.51 0 .81-.3c.43-.44.41-1.26.39-1.91V6.11c0-.58-.02-1.56.08-1.91.14-.45.64-.64 1.13-.83.09-.04.19-.07.27-.1l.07-.02c.49-.17 1.17-.42 1.17-1.14s-.55-1.19-1.46-1.19ZM223.23 17.84c-1.79-1.37-4.39-2.11-6.7-2.65l-4.19-.96c-2.81-.7-6.03-2-6.03-5.83 0-3.47 3.29-5.54 6.47-5.54 4.84 0 7.15 2.59 8.53 4.14.62.7 1.07 1.2 1.51 1.2.22 0 .41-.07.55-.21.33-.33.32-.97.32-1.39v-.13c0-.64 0-2.14-.15-2.73-.19-.58-.52-.87-1.06-1.21-2.25-1.43-5.45-2.28-8.55-2.28-3.54 0-6.19.86-8.33 2.71-2.24 1.84-3.52 4.44-3.52 7.14 0 6.63 5.76 7.94 11.34 9.2 4.8 1.09 9.34 2.11 9.34 6.62s-4.41 7.07-8.77 7.07c-2.49 0-4.78-.64-6.62-1.84-1.69-1.08-2.56-2.45-3.52-4.13-.38-.67-.82-1.32-1.68-1.32-.9 0-1.38.81-1.38 1.61 0 2.34 2.64 4.92 4.04 5.95 2.2 1.58 5.1 2.38 8.6 2.38 3.76 0 6.87-.98 9.24-2.9 2.43-1.97 3.88-4.91 3.88-7.87 0-2.76-1.21-5.32-3.32-7.02ZM273.66 4.77c-.32-2.06-.61-3.21-.91-3.53-.22-.22-.5-.26-.78-.29-.05 0-.11-.01-.19-.03h-25.59c-1.07 0-1.3 2.48-1.41 3.67-.02.17-.03.31-.04.4-.01.1-.04.21-.05.32-.05.25-.09.5-.09.76 0 .72.41 1.18 1.04 1.18.5 0 .96-.44 1.34-.79.08-.08.16-.15.22-.2 1.39-1.17 2.22-1.88 4.1-2.29 1.04-.23 2.63-.46 3.8-.46.79 0 1.29.13 1.56.41.36.37.35.99.34 1.85V30.3c0 1.49.01 1.8-1.53 2.25-.6.17-1.27.37-1.27 1.21 0 1.18 1.2 1.18 1.78 1.18h6.4c.66 0 1.78 0 1.78-1.18 0-.8-.59-1-1.21-1.21l-.34-.11c-.57-.16-1.21-.35-1.21-.88V6.32c0-1.14 0-1.89.42-2.32.33-.33.93-.48 1.94-.48s2.86.21 3.93.55c1.56.46 2.19.97 3.33 1.88l.27.21c.05.05.11.1.17.15.39.36.87.8 1.44.8s.95-.45.95-1.09c0-.3-.06-.72-.18-1.22v-.04ZM367.26 17.84c-1.8-1.38-4.4-2.11-6.7-2.65l-4.18-.96c-2.81-.7-6.03-1.99-6.03-5.83 0-3.47 3.29-5.54 6.47-5.54 4.84 0 7.14 2.59 8.52 4.14.62.7 1.07 1.2 1.52 1.2.23 0 .42-.07.56-.22.33-.33.32-.96.32-1.38v-.13c0-.64 0-2.14-.15-2.73-.21-.58-.54-.87-1.07-1.2-2.25-1.43-5.45-2.28-8.55-2.28-3.53 0-6.18.86-8.33 2.71-2.24 1.84-3.52 4.44-3.52 7.14 0 6.63 5.76 7.94 11.33 9.2 4.8 1.09 9.33 2.11 9.33 6.62S362.37 33 358.02 33c-2.48 0-4.77-.64-6.62-1.84-1.69-1.08-2.55-2.45-3.51-4.13-.37-.64-.83-1.32-1.68-1.32-.9 0-1.38.81-1.38 1.61 0 2.34 2.64 4.92 4.03 5.95 2.2 1.58 5.1 2.38 8.61 2.38 3.75 0 6.86-.98 9.25-2.9 2.42-1.97 3.87-4.92 3.87-7.87 0-2.75-1.21-5.31-3.31-7.02ZM400.87 5.42c.02-1.38.03-1.63 1.52-2.11l.11-.04c.57-.21 1.11-.4 1.11-1.23 0-1.13-1.14-1.13-1.75-1.13h-6.36c-.71 0-1.78 0-1.78 1.13 0 .84.63 1.06 1.19 1.26l.17.06c.08.02.17.05.25.07.68.18 1.16.35 1.16.83V30.3c0 1.5.01 1.81-1.54 2.27-.6.17-1.28.37-1.28 1.21 0 1.18 1.16 1.18 1.78 1.18h6.36c.67 0 1.79 0 1.79-1.18 0-.78-.59-1-1.17-1.2l-.17-.06c-.12-.05-.24-.09-.37-.13-.62-.2-1.03-.37-1.03-.81V5.92c0-.18 0-.35.01-.5M73.27 32.71c-.85-.45-1.2-.71-1.56-1.59l-1.8-5.01c-2.56-8.1-6.28-16.68-9.93-22.93l-.08-.15c-.74-1.3-1.82-3.04-2.6-3.04-.65 0-1.4 1.3-2.24 2.87l-.17.32c-3.36 6.09-7.08 14.66-9.94 22.92l-1.65 4.76c-.37.9-.59 1.17-1.39 1.71-.39.25-.8.57-.8 1.19 0 1.2 1.62 1.2 2.15 1.2.21 0 .42 0 .6-.01h3.0500000000000003c.12 0 .26 0 .42.01.2 0 .41.02.63.02.79 0 1.83-.12 1.83-1.16 0-.64-.46-.88-.96-1.14-.7-.37-1.49-.78-1.49-2.41 0-.23.03-.52.09-.85.44-2.27 1.65-5.86 3.62-10.69l.11-.27a216 216 0 0 1 3.74-8.54h.04l1.78-4.06 2.04 4.44c.5 1.02 1.83 3.83 3.27 7.13l.16.36.08.17c2.18 5.03 3.63 8.93 4.21 11.31h-.03l.05.16c.32 1 .5 1.69.5 1.95 0 .66-.54.88-1.12 1.11s-1.24.49-1.24 1.28c0 1.18 1.25 1.18 1.79 1.18h5.88c.41 0 .83-.01 1.17-.15.42-.17.64-.5.64-.98 0-.64-.42-.9-.85-1.11M178.86 32.71c-.84-.45-1.19-.71-1.55-1.59l-1.79-5.01c-2.56-8.12-6.28-16.69-9.94-22.93l-.08-.14c-.74-1.31-1.81-3.04-2.61-3.04-.66 0-1.45 1.37-2.27 2.9l-.15.29c-3.36 6.1-6.98 14.45-9.93 22.92l-1.66 4.76c-.36.9-.58 1.17-1.38 1.71-.39.25-.8.57-.8 1.19 0 1.2 1.61 1.2 2.14 1.2.21 0 .42 0 .6-.01h3.06c.12 0 .26 0 .42.01.2 0 .41.02.63.02.46 0 1.84 0 1.84-1.16 0-.64-.46-.88-.96-1.14-.7-.37-1.49-.78-1.49-2.41 0-.24.03-.53.1-.85.42-2.26 1.64-5.86 3.61-10.69l.11-.27c1.87-4.57 3.78-8.57 3.81-8.62l1.76-3.98 2.04 4.44c.45.95 1.82 3.83 3.27 7.13l.17.36h-.02l.08.17c1.53 3.49 3.49 8.27 4.22 11.31h-.04l.05.16c.34 1.05.5 1.71.5 1.95 0 .66-.54.88-1.12 1.11s-1.24.49-1.24 1.28c0 1.18 1.25 1.18 1.78 1.18h5.88c.41 0 .84-.01 1.18-.15.42-.17.64-.5.64-.98 0-.65-.42-.9-.85-1.11ZM323.83 32.71c-.85-.46-1.2-.72-1.54-1.59l-1.8-5.01c-2.56-8.08-6.27-16.65-9.94-22.93-.03-.06-.08-.13-.13-.23-.85-1.46-1.81-2.95-2.57-2.95-.65 0-1.45 1.38-2.27 2.91l-.15.27c-3.35 6.1-7.07 14.67-9.93 22.92l-1.65 4.76c-.36.9-.58 1.17-1.38 1.71-.39.25-.8.57-.8 1.19 0 1.2 1.61 1.2 2.14 1.2.21 0 .42 0 .6-.01h3.0500000000000003c.12 0 .26 0 .42.01.2 0 .41.02.64.02.79 0 1.84-.12 1.84-1.16 0-.64-.47-.88-.96-1.14-.7-.37-1.49-.78-1.49-2.41 0-.21.03-.48.1-.85v-.08c.45-2.26 1.63-5.73 3.61-10.61l.1-.27c1.89-4.57 3.79-8.57 3.81-8.62l1.76-3.99 2.04 4.44c.51 1.05 1.85 3.89 3.27 7.13l.17.36h-.01l.08.17c1.52 3.49 3.48 8.25 4.23 11.31h-.05l.05.16c.31.96.5 1.68.5 1.95 0 .66-.54.88-1.12 1.11s-1.24.49-1.24 1.28c0 1.18 1.25 1.18 1.79 1.18h5.88c.4 0 .83-.01 1.17-.15.42-.17.64-.5.64-.98 0-.65-.43-.91-.85-1.11ZM457.08 32.71c-.84-.46-1.19-.72-1.55-1.59l-1.79-5.01c-2.56-8.08-6.27-16.65-9.94-22.93l-.11-.19c-.8-1.39-1.82-2.99-2.58-2.99-.64 0-1.39 1.29-2.24 2.84l-.19.34c-3.34 6.05-7.05 14.62-9.93 22.92l-1.66 4.76c-.37.92-.57 1.18-1.38 1.71-.38.24-.78.55-.78 1.19 0 1.08 1.22 1.2 2.13 1.2.21 0 .42 0 .6-.01h3.05c.12 0 .27 0 .42.01.2 0 .41.02.64.02.79 0 1.84-.12 1.84-1.16 0-.64-.47-.88-.97-1.14-.7-.37-1.5-.78-1.5-2.41 0-.21.04-.48.11-.85.43-2.26 1.64-5.86 3.61-10.69l.12-.27c1.87-4.57 3.78-8.57 3.8-8.62l1.75-3.98 2.04 4.44c.5 1.03 1.84 3.86 3.28 7.13l.17.36h-.01l.08.17c1.52 3.49 3.47 8.26 4.21 11.31h-.04l.05.16c.33 1.05.5 1.71.5 1.95 0 .66-.55.88-1.12 1.11-.58.23-1.24.49-1.24 1.28 0 1.18 1.3 1.18 1.79 1.18h5.89c.41 0 .83-.01 1.17-.15.42-.17.64-.5.64-.98 0-.65-.42-.91-.85-1.11Z" class="cls-1"/><path d="M153.5 23.31c5.67-4.46 10.89-4.92 16.34-2.84.37.14 1.94 1.02 1.94 2.17 0 .54-.63.93-1.26.26-5.09-2.62-10.94-.27-17.28 4.05M298.57 22.84c5.67-4.46 10.89-4.92 16.34-2.84.37.14 1.94 1.02 1.94 2.17 0 .54-.63.93-1.26.26-5.09-2.62-10.94-.27-17.28 4.05M66.46 23.09c0 .53-.95.84-1.58.16-6.57-3.58-13.65 1.36-19.98 4.39-12.57 6-32.9 9.95-42.67-2.7-2.71-3.51-3.57-9.61 1.01-11.95 2.17-1.1 5.04-.9 6.35.95.79 1.13.81 3.58-1.03 4.01-1.82.42-1.88-.84-2.48-1.71-.56-.81-2.28-.03-2.99.61-2.16 1.96-.51 5.59 1.08 7.36 8.98 9.99 22.21 6.62 33.15 2.84 10.92-3.77 17.82-10.06 27.77-5.69.37.13 1.37.6 1.37 1.74ZM431.21 24.61c0-.53 1.35-1.04 1.98-.37 6.75 3.11 15.67-3.05 22.01-6.08 12.57-6 30.34-8.19 40.1 4.46 2.71 3.51 3.7 9.74-.88 12.09-2.17 1.1-5.04.9-6.35-.95-.79-1.13-.81-3.58 1.03-4.01s2 .7 2.48 1.71c.52 1.1 2.06.57 2.77-.07 2.16-1.96.49-6.04-1.08-7.83-8.64-9.86-22.14-7.29-33.08-3.51-10.92 3.77-17.92 9.96-27.62 6.29-.37-.13-1.37-.6-1.37-1.74Z" class="cls-1"/></svg>