<svg width="100" height="30" viewBox="0 0 100 30" fill="none" xmlns="http://www.w3.org/2000/svg">
<path fill-rule="evenodd" clip-rule="evenodd" d="M3.70314 0H96.2924C97.2747 0 98.2167 0.390196 98.9112 1.08475C99.6058 1.7793 99.996 2.72132 99.996 3.70356V25.9216C99.996 27.967 98.3379 29.6252 96.2924 29.6252H3.70356C1.65814 29.6252 0 27.967 0 25.9216V3.70314C2.76142e-06 1.65795 1.65795 2.76142e-06 3.70314 0Z" fill="black"/>
<path fill-rule="evenodd" clip-rule="evenodd" d="M3.70356 0H96.2924C98.3353 0.00586766 99.9899 1.66032 99.996 3.70315V25.922C99.9899 27.9648 98.3353 29.6193 96.2924 29.6252H3.70356C1.66073 29.6193 0.00609382 27.9648 0 25.922V3.70315C0.00609382 1.66032 1.66073 0.00586766 3.70356 0ZM99.4041 3.70273C99.4022 1.98545 98.0105 0.593827 96.2932 0.591937H3.70431C1.987 0.593788 0.595281 1.98542 0.593313 3.70273V25.9216C0.595308 27.6389 1.98702 29.0305 3.70431 29.0324H96.2932C98.0105 29.0305 99.4021 27.6389 99.4041 25.9216V3.70273Z" fill="#A6A6A6"/>
<path d="M23.7202 15.2253C23.7282 14.5997 23.8944 13.9863 24.2033 13.4421C24.5121 12.898 24.9535 12.4408 25.4865 12.1131C25.1479 11.6296 24.7012 11.2316 24.1819 10.9509C23.6626 10.6701 23.085 10.5143 22.495 10.4959C21.2363 10.3637 20.0161 11.249 19.3747 11.249C18.7209 11.249 17.7333 10.509 16.6699 10.5309C15.9821 10.5531 15.3118 10.7531 14.7242 11.1114C14.1366 11.4698 13.6519 11.9742 13.3173 12.5755C11.8677 15.0853 12.9489 18.7739 14.3376 20.8026C15.0323 21.796 15.8443 22.9057 16.9067 22.8663C17.9464 22.8232 18.3347 22.2034 19.5896 22.2034C20.833 22.2034 21.1973 22.8663 22.2813 22.8413C23.3969 22.8232 24.0998 21.8435 24.7701 20.8407C25.2693 20.1328 25.6534 19.3505 25.9083 18.5227C25.2601 18.2485 24.707 17.7897 24.3179 17.2033C23.9288 16.617 23.7209 15.929 23.7202 15.2253Z" fill="white"/>
<path d="M21.6717 9.1613C22.28 8.43109 22.5797 7.49252 22.5071 6.54492C21.5778 6.64253 20.7194 7.08668 20.1029 7.78888C19.8015 8.13192 19.5706 8.531 19.4235 8.96331C19.2764 9.39562 19.216 9.85269 19.2456 10.3084C19.7104 10.3132 20.1703 10.2124 20.5905 10.0137C21.0108 9.81503 21.3805 9.52358 21.6717 9.1613Z" fill="white"/>
<path d="M36.8636 20.3506H33.3157L32.4637 22.8665H30.9609L34.3214 13.5586H35.8827L39.2432 22.8665H37.7149L36.8636 20.3506ZM33.6832 19.1897H36.4955L35.1091 15.1067H35.0703L33.6832 19.1897Z" fill="white"/>
<path d="M46.4979 19.4735C46.4979 21.5824 45.3691 22.9372 43.6658 22.9372C43.2344 22.9598 42.8052 22.8604 42.4276 22.6505C42.05 22.4405 41.7392 22.1284 41.5307 21.75H41.4984V25.1112H40.1055V16.0801H41.4538V17.2088H41.4794C41.6975 16.8322 42.0136 16.5217 42.3941 16.3104C42.7746 16.0992 43.2052 15.995 43.6402 16.0091C45.3625 16.0091 46.4979 17.3705 46.4979 19.4735ZM45.0661 19.4735C45.0661 18.0996 44.3561 17.1963 43.2728 17.1963C42.2085 17.1963 41.4926 18.1186 41.4926 19.4735C41.4926 20.8409 42.2085 21.7566 43.2728 21.7566C44.3561 21.7566 45.0661 20.8599 45.0661 19.4735Z" fill="white"/>
<path d="M53.9705 19.4735C53.9705 21.5824 52.8418 22.9372 51.1385 22.9372C50.707 22.9598 50.2779 22.8604 49.9003 22.6504C49.5227 22.4405 49.2118 22.1284 49.0033 21.75H48.9711V25.1112H47.5781V16.0801H48.9264V17.2088H48.9521C49.1701 16.8322 49.4862 16.5217 49.8667 16.3104C50.2472 16.0992 50.6779 15.995 51.1129 16.0091C52.8352 16.0091 53.9705 17.3705 53.9705 19.4735ZM52.5388 19.4735C52.5388 18.0996 51.8288 17.1963 50.7454 17.1963C49.6811 17.1963 48.9652 18.1186 48.9652 19.4735C48.9652 20.8409 49.6811 21.7566 50.7454 21.7566C51.8287 21.7566 52.5388 20.8599 52.5388 19.4735H52.5388Z" fill="white"/>
<path d="M58.9064 20.2739C59.0096 21.197 59.9062 21.803 61.1316 21.803C62.3057 21.803 63.1504 21.197 63.1504 20.3647C63.1504 19.6422 62.6409 19.2096 61.4346 18.9132L60.2283 18.6226C58.5191 18.2098 57.7257 17.4104 57.7257 16.1134C57.7257 14.5074 59.1252 13.4043 61.1125 13.4043C63.0793 13.4043 64.4277 14.5074 64.473 16.1134H63.0669C62.9827 15.1845 62.2149 14.6238 61.0928 14.6238C59.9706 14.6238 59.2028 15.1911 59.2028 16.0167C59.2028 16.6748 59.6932 17.062 60.893 17.3584L61.9185 17.6102C63.8282 18.0619 64.6217 18.829 64.6217 20.1905C64.6217 21.9318 63.2346 23.0225 61.0284 23.0225C58.9642 23.0225 57.5705 21.9575 57.4805 20.2739L58.9064 20.2739Z" fill="white"/>
<path d="M67.6284 14.4746V16.0806H68.9189V17.1837H67.6284V20.9248C67.6284 21.506 67.8868 21.7768 68.4541 21.7768C68.6073 21.7742 68.7603 21.7634 68.9123 21.7446V22.8411C68.6573 22.8888 68.398 22.9103 68.1386 22.9055C66.7647 22.9055 66.2289 22.3895 66.2289 21.0734V17.1837H65.2422V16.0806H66.2289V14.4746H67.6284Z" fill="white"/>
<path d="M69.6641 19.4749C69.6641 17.3398 70.9216 15.998 72.8826 15.998C74.8501 15.998 76.1018 17.3397 76.1018 19.4749C76.1018 21.616 74.8567 22.9518 72.8826 22.9518C70.9091 22.9518 69.6641 21.616 69.6641 19.4749ZM74.6825 19.4749C74.6825 18.0103 74.0113 17.1458 72.8826 17.1458C71.7539 17.1458 71.0834 18.0168 71.0834 19.4749C71.0834 20.9455 71.7539 21.8034 72.8826 21.8034C74.0113 21.8034 74.6825 20.9455 74.6825 19.4749H74.6825Z" fill="white"/>
<path d="M77.25 16.08H78.5785V17.2351H78.6108C78.7007 16.8743 78.912 16.5555 79.2093 16.3322C79.5065 16.1089 79.8716 15.9948 80.2431 16.009C80.4036 16.0084 80.5637 16.0259 80.7203 16.061V17.3639C80.5177 17.302 80.3063 17.2735 80.0945 17.2797C79.8921 17.2715 79.6904 17.3072 79.5031 17.3843C79.3158 17.4614 79.1475 17.5782 79.0096 17.7265C78.8717 17.8748 78.7675 18.0512 78.7042 18.2436C78.6409 18.436 78.62 18.6398 78.643 18.841V22.8662H77.25V16.08Z" fill="white"/>
<path d="M87.145 20.8745C86.9576 22.1064 85.7579 22.9518 84.2229 22.9518C82.2488 22.9518 81.0234 21.6292 81.0234 19.5072C81.0234 17.3786 82.2554 15.998 84.1644 15.998C86.0419 15.998 87.2226 17.2878 87.2226 19.3454V19.8226H82.4296V19.9068C82.4074 20.1566 82.4387 20.4082 82.5213 20.6449C82.6039 20.8816 82.7359 21.0981 82.9085 21.2799C83.0812 21.4617 83.2906 21.6047 83.5227 21.6994C83.7549 21.794 84.0046 21.8382 84.2551 21.829C84.5843 21.8598 84.9146 21.7836 85.197 21.6116C85.4793 21.4396 85.6987 21.1811 85.8223 20.8745H87.145ZM82.4362 18.8491H85.8289C85.853 18.4169 85.7044 17.9929 85.4158 17.6703C85.1272 17.3477 84.7223 17.153 84.2902 17.1289C84.2483 17.1266 84.2063 17.1259 84.1644 17.1268C83.7088 17.124 83.2707 17.3024 82.9466 17.6227C82.6225 17.9429 82.4389 18.3788 82.4362 18.8344C82.4362 18.8393 82.4362 18.8442 82.4362 18.8491H82.4362Z" fill="white"/>
<path d="M33.5061 6.5539C33.7981 6.53295 34.0912 6.57706 34.3641 6.68307C34.637 6.78909 34.883 6.95435 35.0843 7.16694C35.2856 7.37953 35.4373 7.63415 35.5283 7.91243C35.6193 8.19072 35.6474 8.48573 35.6105 8.77619C35.6105 10.205 34.8383 11.0263 33.5061 11.0263H31.8906V6.5539H33.5061ZM32.5853 10.3938H33.4285C33.6372 10.4063 33.846 10.3721 34.0398 10.2937C34.2336 10.2153 34.4075 10.0946 34.5487 9.94054C34.69 9.78646 34.7952 9.60282 34.8565 9.40297C34.9179 9.20313 34.9339 8.99212 34.9034 8.7853C34.9317 8.5793 34.914 8.3696 34.8517 8.17122C34.7894 7.97285 34.684 7.79071 34.5431 7.63785C34.4021 7.485 34.2291 7.36521 34.0364 7.28708C33.8437 7.20895 33.6361 7.17441 33.4285 7.18593H32.5853V10.3938Z" fill="white"/>
<path d="M36.3942 9.33717C36.373 9.11536 36.3984 8.89157 36.4687 8.68015C36.5391 8.46872 36.6528 8.27433 36.8027 8.10944C36.9526 7.94456 37.1352 7.81281 37.339 7.72266C37.5428 7.63251 37.7631 7.58594 37.9859 7.58594C38.2088 7.58594 38.4291 7.63251 38.6329 7.72266C38.8366 7.81281 39.0193 7.94456 39.1692 8.10944C39.319 8.27433 39.4328 8.46872 39.5031 8.68015C39.5735 8.89157 39.5988 9.11536 39.5776 9.33717C39.5992 9.5592 39.5742 9.7833 39.504 9.99506C39.4339 10.2068 39.3202 10.4016 39.1703 10.5668C39.0204 10.732 38.8376 10.864 38.6336 10.9543C38.4296 11.0447 38.209 11.0914 37.9859 11.0914C37.7629 11.0914 37.5422 11.0447 37.3383 10.9543C37.1343 10.864 36.9515 10.732 36.8016 10.5668C36.6517 10.4016 36.538 10.2068 36.4679 9.99506C36.3977 9.7833 36.3726 9.5592 36.3942 9.33717ZM38.8925 9.33717C38.8925 8.60556 38.5638 8.17772 37.987 8.17772C37.408 8.17772 37.0823 8.60556 37.0823 9.33718C37.0823 10.0746 37.4081 10.4992 37.987 10.4992C38.5638 10.4992 38.8925 10.0717 38.8925 9.33718L38.8925 9.33717Z" fill="white"/>
<path d="M43.8093 11.0275H43.1183L42.4207 8.54171H42.368L41.6734 11.0275H40.9889L40.0586 7.65234H40.7342L41.3388 10.2278H41.3886L42.0825 7.65234H42.7215L43.4154 10.2278H43.4681L44.0698 7.65234H44.7359L43.8093 11.0275Z" fill="white"/>
<path d="M45.5195 7.65244H46.1607V8.18862H46.2105C46.295 7.99605 46.4374 7.83462 46.6179 7.72683C46.7985 7.61904 47.0081 7.57027 47.2177 7.58731C47.3819 7.57496 47.5468 7.59972 47.7002 7.65975C47.8536 7.71979 47.9914 7.81356 48.1036 7.93412C48.2158 8.05468 48.2995 8.19894 48.3483 8.35621C48.3972 8.51348 48.4101 8.67973 48.386 8.84265V11.0276H47.7199V9.0099C47.7199 8.46751 47.4842 8.19777 46.9915 8.19777C46.88 8.19257 46.7687 8.21155 46.6653 8.2534C46.5618 8.29525 46.4686 8.35898 46.392 8.44022C46.3155 8.52145 46.2574 8.61828 46.2218 8.72407C46.1861 8.82985 46.1738 8.94209 46.1856 9.05308V11.0276H45.5195V7.65244Z" fill="white"/>
<path d="M49.4453 6.33398H50.1114V11.0267H49.4453V6.33398Z" fill="white"/>
<path d="M51.0388 9.33722C51.0176 9.1154 51.0429 8.8916 51.1133 8.68016C51.1837 8.46873 51.2974 8.27434 51.4473 8.10945C51.5972 7.94456 51.7799 7.81281 51.9837 7.72266C52.1874 7.63251 52.4078 7.58594 52.6306 7.58594C52.8535 7.58594 53.0738 7.63251 53.2776 7.72266C53.4814 7.81281 53.6641 7.94456 53.814 8.10945C53.9638 8.27434 54.0776 8.46873 54.148 8.68016C54.2183 8.8916 54.2437 9.1154 54.2225 9.33722C54.2441 9.55926 54.219 9.78336 54.1488 9.99512C54.0786 10.2069 53.9649 10.4016 53.815 10.5668C53.6651 10.732 53.4823 10.8641 53.2783 10.9544C53.0743 11.0447 52.8537 11.0914 52.6306 11.0914C52.4075 11.0914 52.1869 11.0447 51.9829 10.9544C51.779 10.8641 51.5961 10.732 51.4462 10.5668C51.2963 10.4016 51.1826 10.2069 51.1124 9.99512C51.0423 9.78336 51.0172 9.55926 51.0388 9.33722ZM53.537 9.33722C53.537 8.60561 53.2083 8.17777 52.6315 8.17777C52.0525 8.17777 51.7268 8.60561 51.7268 9.33723C51.7268 10.0747 52.0526 10.4992 52.6315 10.4992C53.2083 10.4992 53.537 10.0718 53.537 9.33722Z" fill="white"/>
<path d="M54.9258 10.0717C54.9258 9.46419 55.3782 9.11394 56.1811 9.06416L57.0954 9.01146V8.72014C57.0954 8.36364 56.8597 8.16237 56.4044 8.16237C56.0325 8.16237 55.7749 8.29887 55.7009 8.53751H55.0561C55.1241 7.95778 55.6695 7.58594 56.4351 7.58594C57.2813 7.58594 57.7585 8.00718 57.7585 8.72014V11.0262H57.1173V10.5519H57.0646C56.9576 10.7221 56.8074 10.8608 56.6293 10.9539C56.4512 11.047 56.2516 11.0911 56.0508 11.0819C55.7819 11.1098 55.5128 11.0298 55.3028 10.8594C55.0929 10.689 54.9592 10.4422 54.9312 10.1732C54.9277 10.1395 54.9259 10.1057 54.9258 10.0717ZM57.0954 9.78333V9.50116L56.2712 9.55386C55.8064 9.58496 55.5956 9.74307 55.5956 10.0406C55.5956 10.3444 55.8591 10.5212 56.2214 10.5212C56.4314 10.5424 56.6412 10.4794 56.8046 10.346C56.9681 10.2125 57.0719 10.0196 57.0932 9.80969L57.0954 9.78333Z" fill="white"/>
<path d="M58.6328 9.33767C58.6328 8.27117 59.1811 7.59556 60.0338 7.59556C60.2447 7.58584 60.4541 7.63637 60.6374 7.74122C60.8206 7.84608 60.9703 8.00094 61.0688 8.1877H61.1186V6.33398H61.7847V11.0267H61.1465V10.4934H61.0938C60.9876 10.679 60.8327 10.8319 60.6459 10.9357C60.4591 11.0395 60.2474 11.0902 60.0338 11.0823C59.1752 11.0824 58.6328 10.4067 58.6328 9.33767ZM59.3209 9.33767C59.3209 10.0535 59.6583 10.4843 60.2227 10.4843C60.7841 10.4843 61.1311 10.0473 61.1311 9.3406C61.1311 8.63716 60.7805 8.19395 60.2227 8.19395C59.662 8.19395 59.3209 8.62765 59.3209 9.33767H59.3209Z" fill="white"/>
<path d="M64.5388 9.33717C64.5176 9.11536 64.5429 8.89157 64.6133 8.68015C64.6836 8.46872 64.7974 8.27433 64.9472 8.10944C65.0971 7.94456 65.2798 7.81281 65.4835 7.72266C65.6873 7.63251 65.9076 7.58594 66.1305 7.58594C66.3533 7.58594 66.5736 7.63251 66.7774 7.72266C66.9812 7.81281 67.1638 7.94456 67.3137 8.10944C67.4636 8.27433 67.5773 8.46872 67.6477 8.68015C67.718 8.89157 67.7434 9.11536 67.7222 9.33717C67.7438 9.5592 67.7187 9.7833 67.6485 9.99506C67.5784 10.2068 67.4647 10.4016 67.3148 10.5668C67.1649 10.732 66.9821 10.864 66.7781 10.9543C66.5742 11.0447 66.3535 11.0914 66.1305 11.0914C65.9074 11.0914 65.6868 11.0447 65.4828 10.9543C65.2788 10.864 65.096 10.732 64.9461 10.5668C64.7962 10.4016 64.6825 10.2068 64.6124 9.99506C64.5422 9.7833 64.5172 9.5592 64.5388 9.33717ZM67.037 9.33717C67.037 8.60556 66.7084 8.17772 66.1316 8.17772C65.5526 8.17772 65.2269 8.60556 65.2269 9.33718C65.2269 10.0746 65.5526 10.4992 66.1316 10.4992C66.7084 10.4992 67.037 10.0717 67.037 9.33717Z" fill="white"/>
<path d="M68.6172 7.65244H69.2584V8.18862H69.3082C69.3926 7.99604 69.535 7.83461 69.7156 7.72683C69.8961 7.61904 70.1058 7.57027 70.3154 7.58731C70.4796 7.57496 70.6445 7.59973 70.7979 7.65976C70.9512 7.7198 71.0891 7.81357 71.2013 7.93413C71.3135 8.05469 71.3971 8.19894 71.446 8.35621C71.4949 8.51348 71.5077 8.67973 71.4836 8.84265V11.0276H70.8175V9.0099C70.8175 8.46751 70.5818 8.19777 70.0892 8.19777C69.9777 8.19257 69.8664 8.21155 69.7629 8.2534C69.6595 8.29524 69.5663 8.35897 69.4897 8.44021C69.4132 8.52145 69.3551 8.61828 69.3195 8.72407C69.2838 8.82985 69.2715 8.94209 69.2833 9.05308V11.0276H68.6172L68.6172 7.65244Z" fill="white"/>
<path d="M75.2456 6.81055V7.66622H75.9769V8.22728H75.2456V9.96278C75.2456 10.3163 75.3913 10.4711 75.7229 10.4711C75.8078 10.4709 75.8926 10.4657 75.9769 10.4558V11.0106C75.8572 11.032 75.736 11.0434 75.6145 11.0446C74.8738 11.0446 74.5788 10.7841 74.5788 10.1333V8.22725H74.043V7.66622H74.5788V6.81057L75.2456 6.81055Z" fill="white"/>
<path d="M76.8867 6.33398H77.547V8.19394H77.5997C77.6882 7.99957 77.8345 7.83723 78.0187 7.72904C78.2029 7.62084 78.4159 7.57206 78.6288 7.58933C78.7922 7.58045 78.9555 7.60772 79.1071 7.66922C79.2587 7.73071 79.3949 7.82491 79.5059 7.94509C79.6169 8.06527 79.7001 8.20847 79.7494 8.36448C79.7987 8.52048 79.813 8.68545 79.7912 8.8476V11.0267H79.1244V9.01191C79.1244 8.47281 78.8733 8.19978 78.4027 8.19978C78.2882 8.19039 78.173 8.20613 78.0653 8.24589C77.9575 8.28566 77.8597 8.34849 77.7788 8.42999C77.6978 8.5115 77.6357 8.60971 77.5966 8.71774C77.5576 8.82578 77.5427 8.94104 77.5528 9.05546V11.0267H76.8867L76.8867 6.33398Z" fill="white"/>
<path d="M83.6766 10.115C83.5861 10.4234 83.3901 10.6903 83.1227 10.8688C82.8553 11.0473 82.5337 11.1261 82.2141 11.0914C81.9918 11.0973 81.7708 11.0547 81.5665 10.9666C81.3623 10.8785 81.1797 10.747 81.0313 10.5813C80.883 10.4155 80.7725 10.2195 80.7075 10.0068C80.6425 9.79401 80.6246 9.56968 80.655 9.34933C80.6254 9.1283 80.6436 8.90349 80.7085 8.69011C80.7733 8.47674 80.8832 8.27978 81.0308 8.11258C81.1783 7.94537 81.3601 7.81182 81.5637 7.72097C81.7674 7.63012 81.9882 7.58409 82.2112 7.58599C83.1503 7.58599 83.7169 8.2276 83.7169 9.28746V9.51989H81.3336V9.55722C81.3137 9.79299 81.3883 10.027 81.541 10.2077C81.6937 10.3885 81.9119 10.5012 82.1476 10.521C82.1758 10.5234 82.2041 10.5244 82.2324 10.5241C82.3918 10.5433 82.5532 10.5146 82.6962 10.4417C82.8392 10.3689 82.9572 10.2551 83.0354 10.115L83.6766 10.115ZM81.3336 9.02726H83.0383C83.0543 8.81187 82.984 8.59896 82.843 8.43536C82.702 8.27177 82.5018 8.17089 82.2864 8.15492C82.2601 8.15298 82.2339 8.15231 82.2075 8.15292C82.0942 8.1515 81.9817 8.17241 81.8764 8.21447C81.7711 8.25652 81.6752 8.3189 81.594 8.39804C81.5129 8.47718 81.4481 8.57153 81.4034 8.6757C81.3587 8.77988 81.335 8.89183 81.3335 9.00518C81.3334 9.01254 81.3334 9.0199 81.3335 9.02725L81.3336 9.02726Z" fill="white"/>
</svg>
