<?xml version="1.0" encoding="UTF-8"?>
<svg id="Layer_1" data-name="Layer 1" xmlns="http://www.w3.org/2000/svg" viewBox="0 0 1012.75 133.08">
  <defs>
    <style>
      .cls-1 {
        fill: #4f4e4e;
      }
    </style>
  </defs>
  <path class="cls-1" d="M417.45,70.55l5.3-14.88c.2-.71,0-.92-.2-1.12l-1.22-.81c-.61-.41-1.02-.2-1.22,.2-1.63,1.83-7.14,8.77-9.38,10.6-2.65,2.35-5.51,3.87-8.97,3.87h-22.84l9.99-30.89h5.1c7.34,0,11.21,1.12,11.21,8.46,0,.61,0,.82,.61,1.02h1.84c.41,0,.61,0,.82-.61,.41-3.87,3.67-16.52,5.3-20.39,.2-.2,0-.61-.41-.61l-1.83-.61c-.41,0-.61,.2-.82,.61-3.67,7.95-7.65,8.46-12.03,8.46h-8.77l8.57-26.41h15.9c.61,0,1.22,.2,1.83,.82l10.4,12.03c.61,.61,.82,.82,1.22,.61l1.22-.61q.61-.41,.41-1.12l-3.06-13.66c-.41-1.63-.61-2.04-2.24-2.04-1.12,0-3.57,.1-7.65,.2-4.08,.1-9.69,.1-17.03,.1h-7.34c-2.45,0-5.81-.1-8.77-.2-2.85,0-5.3-.1-5.91-.1-.82,0-1.02,.2-1.22,.81l-.61,2.24c-.2,.61,.1,1.02,.61,1.02h3.26c3.06,0,6.73,1.43,5,6.93l-15.6,48.43c-1.02,3.36-3.06,5.4-7.14,5.4h-3.26c-.41,0-.61,.2-.71,.61l-.41,2.65c-.1,.61,.1,.81,.61,.81,.61,0,2.24-.1,4.49-.2,2.35,0,5.3-.1,8.46-.1h13.25c7.03,0,14.38,0,20.19,.1,5.81,.1,9.99,.2,10.81,.2,1.22,0,1.84-.2,2.24-1.83Z"/>
  <path class="cls-1" d="M355.17,12.94c-8.57-8.36-22.84-9.48-36.5-9.48-2.65,0-7.34,0-11.62,.1-3.47,.1-6.73,.2-8.36,.2-.82,0-1.12,.2-1.22,.61l-.61,2.24c-.2,.61,.2,.92,.71,.92h5c2.45,0,5.1,1.22,4.18,5.1l-11.93,47.82c-1.63,6.63-4.89,7.85-7.95,7.85h-2.55c-.61,0-.92,.2-1.02,.81l-.51,2.24c-.1,.61,.2,1.02,.92,1.02s3.57-.31,12.95-.31c2.85,0,10.4,.31,13.25,.31,6.93,0,20.9,.31,34.05-7.34,6.12-3.57,18.76-13.56,18.76-33.54,0-6.32-1.22-12.03-7.54-18.56Zm-17.13,47.31c-7.14,5.91-16.52,8.05-26.51,8.05-3.06,0-5.91-.82-5.91-2.75,0-1.02,.2-2.45,.61-4.28l13.15-52.81c.2-1.02,2.96-1.12,4.59-1.12,1.43,0,5.1,0,9.89,1.33,3.77,1.02,6.63,2.65,10.09,6.12,4.08,3.87,6.73,10.4,6.73,16.92,0,11.83-6.12,23.25-12.64,28.55Z"/>
  <path class="cls-1" d="M972.44,104.69c-3.02,0-5.35,2.33-5.35,5.08,0,1.92,.41,4.12,.41,6.18,0,7.55-5.21,9.59-14.45,9.59s-15.63-2.37-24.6-11.78c-13.65-14.06-25.49-42.02-32.45-63.04,19.54-3.48,28.94-16.9,28.94-26,0-5.62-3.08-11.78-10.84-15.66-8.16-4.15-21.03-4.15-32.41-4.15h-3.43c-34.65,0-49.34,11.83-51.04,28.2-.76,7.31,3.82,12.64,8.67,12.64,3.68,0,6.76-2.65,6.76-5.88,0-5.29-8.45,.32-8.45-9.82,0-8.94,11.41-18.99,29.76-18.99,6.77,0,6.7,.28,4.96,5.36l-21.42,67.73c-.94,2.94-3.21,5.89-8.03,5.89h-2.54c-.94,0-1.2,.27-1.34,1.07l-.54,2.81c-.13,.67,0,1.07,.8,1.07,1.6,0,6.83-.4,14.72-.4,11.24,0,20.35,.4,21.82,.4,.94,0,1.47-.13,1.61-.8l.4-3.08c.13-.67-.13-1.07-.94-1.07h-5.49c-5.62,0-7.36-2.01-4.95-9.64l9.24-29.98c3.48,.27,4.89,.57,7.03,.57s3.08,.67,3.48,2.41c4.15,15.12,18.58,49.22,32.5,63.41,11.91,12.05,23.57,15.13,33.48,15.13,17.75,0,31.91-11.19,31.91-20.25,0-3.84-3.71-7-8.23-7Zm-98.43-59.09l10.31-33.19c.8-2.68,2.01-3.21,6.02-3.21,12.05,0,20.26,5.09,20.26,16.06,0,7.63-6.02,21.68-25.83,21.68-3.35,0-7.01-.27-10.76-1.34Z"/>
  <path class="cls-1" d="M517.72,8.36h3.48c1.07,0,1.34-.27,1.34-1.07l.54-2.95c.13-.8-.27-1.33-1.07-1.33-1.34,0-10.45,.4-20.89,.4-12.04,0-21.44-.4-22.51-.4-.8,0-1.34,.26-1.34,1.07l-.8,3.21c-.13,.8,.54,1.07,1.34,1.07h4.28c5.89,0,9.13,5.85,7.66,10.94l-20.49,72.51c-5.35,16.51-13.26,36.34-31.14,36.34-9.31,0-16.84-6.02-16.84-13.55,0-4.38,2.47-8.9,7.26-8.9,1.92,0,3.7,1.1,3.7,3.01,0,1.37-.82,2.05-.82,3.15,0,2.6,3.29,3.83,5.48,3.83,3.97,0,6.3-2.6,6.3-6.3,0-6.3-6.71-9.86-12.19-9.86-7.53,0-13.55,6.57-13.55,14.65,0,10.41,10.68,18.89,23.82,18.89s23.35-8.24,30.44-18.49c2.37-3.01,5.02-7.64,7.44-12.61,1.52-3.11,6.19-16.24,8.06-22.72l17.4-58.62c2.68-8.97,9.65-12.27,13.13-12.27Z"/>
  <path class="cls-1" d="M576.19,89.49h-3.35c-2.68,0-4.82-1.61-4.82-3.75,0-1.74,.8-5.22,1.34-7.36l19.81-74.01c.27-.94-.27-1.61-1.34-1.61s-2.94,.67-5.35,1.07c-3.48,.67-6.69,.93-8.57,.93-2.14,0-2.68,.27-3.48,1.34l-62.5,74.01c-4.68,5.62-11.11,9.37-15.93,9.37h-1.87c-.54,0-.94,.26-1.07,1.07l-.54,2.94c-.13,.94,.27,1.34,1.07,1.34,1.61,0,6.16-.4,15.79-.4,11.24,0,16.86,.4,18.2,.4,.8,0,1.2-.4,1.34-1.21l.54-3.08c.13-.67-.13-1.07-.8-1.07h-4.02c-3.48,0-5.09-1.34-5.09-3.48,0-2.27,3.21-6.82,6.96-11.91l15.53-19.81h23.02l-6.96,24.63c-2.68,9.77-5.62,10.57-10.44,10.57h-2.28c-.67,0-1.07,.26-1.2,1.07l-.54,2.81c-.13,.94,0,1.47,.8,1.47,2.68,0,6.69-.4,17.13-.4s15.79,.4,17.27,.4c1.2,0,1.61-.4,1.74-1.07l.54-3.21c.13-.67-.13-1.07-.94-1.07Zm-34.4-40.02l28.11-35.33c1.07-1.07,3.21-.8,2.68,1.07l-9.9,34.26h-20.88Z"/>
  <path class="cls-1" d="M695.98,9.73h3.48c.8,0,1.07-.27,1.07-1.07l.54-2.41c.27-1.07,0-1.87-1.34-1.87-1.87,0-4.55,.4-11.51,.4-9.37,0-13.65-.4-15.26-.4-.8,0-1.07,.54-1.34,1.07l-.27,2.94c-.27,1.07,0,1.34,1.34,1.34h4.01c4.55,0,5.62,4.28,2.14,15.12l-14.19,43.36c-1.07,3.21-1.61,3.48-2.68,1.87l-29.71-61.83c-.8-1.87-1.61-3.48-4.02-3.48-15.79,0-21.15-.4-22.75-.4-1.07,0-1.34,.54-1.61,1.33l-.54,2.41c-.27,1.07,0,1.61,1.07,1.61h5.09c5.62,0,8.43,3.75,5.89,11.64l-16.33,51.66c-4.01,11.91-7.23,16.46-13.38,16.46h-2.94c-.8,0-1.07,.54-1.34,1.07l-.4,2.81c-.13,.94,.13,1.47,.94,1.47,1.61,0,5.89-.4,15.26-.4s14.72,.4,16.06,.4,1.34-.27,1.61-1.21l.54-2.81c0-.8-.27-1.33-1.34-1.33h-5.09c-5.62,0-6.16-6.29-1.61-21.55l13.38-44.7c.27-1.61,1.34-1.61,2.14-.27l33.73,68.79c.8,1.87,2.14,2.68,3.48,2.68,.8-.27,1.87-1.34,2.68-3.48l24.63-70.4c2.68-7.63,5.35-10.84,8.57-10.84Z"/>
  <path class="cls-1" d="M764.52,70.35c-.8-.54-1.33-.27-1.61,.27-2.14,2.41-9.36,11.51-12.31,13.92-3.48,3.08-7.22,5.09-11.78,5.09h-29.98l13.12-40.55h6.69c9.64,0,14.73,1.47,14.73,11.11,0,.8,0,1.07,.8,1.34h2.41c.54,0,.8,0,1.07-.8,.54-5.09,4.82-21.68,6.96-26.77,.26-.27,0-.8-.54-.8l-2.41-.8c-.54,0-.8,.27-1.07,.8-4.82,10.44-10.04,11.11-15.79,11.11h-11.51l11.24-34.66h20.88c.81,0,1.61,.27,2.41,1.07l13.65,15.79c.81,.8,1.07,1.07,1.61,.8l1.61-.8q.81-.54,.54-1.47l-4.01-17.93c-.54-2.14-.81-2.68-2.95-2.68-1.47,0-4.68,.13-10.04,.26-5.35,.14-12.71,.14-22.35,.14h-9.64c-3.21,0-7.63-.14-11.51-.27-3.75,0-6.96-.13-7.76-.13-1.07,0-1.34,.26-1.61,1.07l-.8,2.94c-.27,.81,.13,1.34,.8,1.34h4.28c4.02,0,8.83,1.87,6.56,9.1l-20.48,63.57c-1.34,4.42-4.02,7.1-9.37,7.1h-4.28c-.54,0-.8,.26-.94,.8l-.54,3.48c-.13,.8,.13,1.07,.8,1.07,.8,0,2.94-.14,5.89-.27,3.08,0,6.96-.13,11.11-.13h17.4c9.23,0,18.87,0,26.5,.13,7.63,.14,13.11,.27,14.18,.27,1.61,0,2.41-.27,2.95-2.41l6.96-19.54c.26-.94,0-1.21-.27-1.47l-1.61-1.07Z"/>
  <path class="cls-1" d="M831.31,9.73c1.07,0,1.34-.54,1.34-1.07l.8-2.68c.27-1.07-.27-1.61-1.61-1.61-1.87,0-7.49,.4-19,.4-10.71,0-17.93-.4-19.54-.4-1.07,0-1.61,.26-1.61,.8l-.8,3.48c0,.8,.27,1.07,1.34,1.07h6.16c3.48,0,5.62,2.14,3.75,8.83l-16.86,61.43c-1.87,6.83-2.68,9.5-10.44,9.5h-5.09c-.8,0-1.07,.26-1.07,1.07l-.8,2.94c0,.81,.27,1.34,1.07,1.34,1.61,0,8.57-.4,19.81-.4,13.65,0,19.81,.4,21.41,.4,1.34,0,1.34-.27,1.61-1.34l.27-2.68c.27-.8,0-1.33-.8-1.33h-4.82c-5.62,0-7.63-2.68-5.89-9.1l16.6-61.7c2.01-7.63,5.09-8.97,10.71-8.97h3.48Z"/>
  <path class="cls-1" d="M976.35,2.77c-28.37,0-48.72,26.23-48.72,54.07,0,12.04,3.48,22.75,11.78,30.78,8.3,8.03,18.74,8.84,24.09,8.84,30.25,0,49.25-27.84,49.25-54.6,0-24.63-14.99-39.08-36.4-39.08Zm-15.25,87.52c-10.98,0-19.81-7.76-19.81-24.35,0-14.73,8.03-34.53,19-46.85,4.82-5.62,11.24-9.9,19.27-9.9,12.05,0,18.74,8.83,18.74,22.21-.26,28.91-17.67,58.89-37.2,58.89Z"/>
  <path class="cls-1" d="M79.95,0c-.1,0-.21,0-.31,0-16.22,.84-27.29,12.21-27.29,26.05,0,6.93,2.99,15.08,7.06,24.58,5.03,11.82,12.9,22.82,12.9,41.7,0,16.84-11.2,31.78-32.66,31.78-15.89,0-28.28-11.95-28.42-23.5-.14-9.78,4.62-15.62,8.15-15.89,3.12,.14,5.02,2.99,5.84,7.61,.54,3.26,3.67,5.57,6.25,5.57,5.03,0,7.06-3.67,7.06-6.79,0-6.52-5.84-12.09-14.94-12.09-12.09,0-23.6,9.78-23.6,22.82,0,13.85,12.06,27.44,37.59,27.44,29.61,0,50.64-20.22,50.64-45.48,0-14.81-6.93-25.94-12.5-37.76-4.48-9.51-8.15-16.98-8.28-25.94-.13-8.86,4.17-13.14,12.18-13.87,.72-.08,1.45-.13,2.19-.13,8.8,0,15.2,4.39,15.2,11.9,0,2.46-.18,5.35-3,5.35-3.64,0-1.64-4.34-5.4-4.34-3.17,0-5.63,3.17-5.63,6.1,0,4.46,4.58,6.8,8.45,6.8,7.39,0,11.62-7.98,11.62-14.43,0-9.39-11.15-17.48-23.12-17.48Z"/>
  <path class="cls-1" d="M148.92,1.81c-28.37,0-48.72,26.23-48.72,54.07,0,12.04,3.48,22.75,11.78,30.78,8.3,8.03,18.74,8.84,24.09,8.84,30.25,0,49.25-27.84,49.25-54.6,0-24.63-14.99-39.08-36.4-39.08Zm-15.26,87.52c-10.97,0-19.81-7.76-19.81-24.35,0-14.73,8.03-34.53,19-46.85,4.82-5.62,11.24-9.9,19.27-9.9,12.05,0,18.74,8.83,18.74,22.21-.27,28.91-17.67,58.89-37.21,58.89Z"/>
  <path class="cls-1" d="M257.42,69.4c-.54-.27-1.07,0-1.34,.8-.54,1.07-9.1,11.78-12.98,15.12-1.74,1.61-2.81,2.41-5.22,2.68-2.68,.54-12.58,.54-21.95,.54h-8.03c-2.68,0-4.02-.81-3.21-3.62l21.01-67.45c2.27-7.36,4.68-8.7,9.5-8.7h5.35c.8,0,1.47-.27,1.61-1.07l.54-2.95c.14-.8-.27-1.33-1.07-1.33-1.34,0-7.49,.4-20.34,.4-11.78,0-17.4-.4-19-.4-1.07,0-1.47,.26-1.61,.8l-.8,3.21c-.13,.81,.14,1.34,1.07,1.34h4.82c5.09,0,6.42,2.41,4.55,8.29l-19.14,61.97c-2.54,8.16-5.49,9.5-10.57,9.5h-2.41c-.8,0-1.2,.26-1.34,1.07l-.54,2.94c-.27,1.07,.27,1.34,1.07,1.34,.94,0,4.42-.14,9.64-.27,5.09-.13,11.65-.13,17.93-.13,18.74,0,35.6,.54,38.54,.54,1.87,0,3.48,.27,5.09,.8,1.34,.27,2.68,.8,3.48,.8,.54,0,1.34-.8,1.61-2.41,1.07-4.28,5.89-20.07,6.42-21.95,.27-.54,0-.8-.8-1.07l-1.87-.8Z"/>
</svg>