<svg xmlns="http://www.w3.org/2000/svg" viewBox="0 0 167.6 26.8"><path d="M26.9 13.4c0 7.5-5.9 13.4-13.4 13.4S0 20.7 0 13.5 5.9 0 13.3 0C21.1 0 27 5.8 27 13.4Zm-24.2.1c0 6.3 5 10.8 10.7 10.8s10.9-4.6 10.9-10.9S19.1 2.5 13.4 2.5 2.7 7 2.7 13.5M34.7.6h2.6v23h9.8v2.5H34.7zM64.3.6l11.9 25.5h-2.7l-4-8.4h-11l-4 8.4h-2.8L63.7.6zM63.9 6l-4.4 9.2h8.7zM82.8.6h5.9c2.7 0 4.7.2 5.9.6 2.6 1 4.2 3.3 4.2 6.1s-1.1 4.4-3 5.6c-1.8 1.1-4.4 1.3-8 1.3h-2.5v11.9h-2.6V.6Zm2.5 2.5v8.7h4.2c2.2 0 3.9-.2 5.1-1.1.9-.7 1.5-2 1.5-3.3s-.6-2.6-1.6-3.3c-1.1-.8-2.7-1-4.7-1zM106.5.6h2.6v23h9.8v2.5h-12.4zM125.7.6h14.6v2.5h-12v8h12v2.5h-12v10.1h12v2.5h-14.6zM146 .6h3l6.1 10 6.1-10h3L156.6 13l8.1 13.2h-3l-6.6-10.7-6.7 10.7h-3l8.1-13.2L145.9.6ZM166.8 26.2c-.5 0-.9-.4-.9-.9s.4-.9.9-.9.9.4.9.9-.4.9-.9.9m0-1.6c-.4 0-.8.3-.8.8s.4.8.8.8.7-.3.7-.8c0-.4-.3-.8-.7-.8m-.4.2h.6000000000000001c.1 0 .2.1.2.2s0 .2-.1.2c0 0 .1 0 .1.2v.3h-.2v-.2c0-.2 0-.3-.2-.3h-.3v.4h-.2v-1Zm.2.2v.3h.3c.1 0 .2 0 .2-.2s0-.2-.2-.2h-.2Z"/></svg>