<svg xmlns="http://www.w3.org/2000/svg" viewBox="0 0 430 86.9"><defs><style>.cls-1{fill:#1d1d1b}</style></defs><g id="Ebene_1"><path d="M58.2 66.3c-1.1 3.2-3.8 5.6-9.4 6.4-9 1.3-31.2 3.4-40.7-10.1-12-17.3-9.5-42.4-.2-52.8C16.4.3 26.4-.7 39.2.5c7.7.7 10.7 1.1 18.1 1.7v9c-5.8-6.1-14.1-6.9-24-5.8C18.1 7.2 10.4 19.2 12 39.5c1.3 15.5 7.5 26.3 21.3 28.8 10.6 2.1 19-1 25.8-9.3.5 2.4 0 5-.8 7.2M193.8 72.4s-28-37.3-43.6-55.1l-.6 45.6c0 5.5 5.5 9.5 5.5 9.5h-12.9V1.8h12.7l37.6 49.7s.6-36.5.5-39.2c0-7.2-5.1-10.6-5.1-10.6h12.6v70.6H194ZM248.7 52c-3.5-12.6-3-21.6.2-32.2 5.6-18.1 35.1-23.1 43.6.5 3.7 10.1 4.2 20.7 1 31.7-7.2 24.5-39.1 19.9-44.7 0m35.1 20.9c-3.2-.5-5.1-.3-7.7-1 12.3-1.9 21.6-6.1 26.3-18.1 2.2-5.8 7.4-23.7.6-38C297.7 4.3 287.9-.3 270 0c-12.6.3-24 2.6-30.7 15-7 13.5-4.8 29.8-2.1 37 4.3 10.9 11.9 18.6 21.8 20 21.5 2.9 17.9 5.4 28.5 11.2 7.8 4.2 12.2 3.8 17 3.4v-3.7c-3-.6-3.2.8-7.8-2.4-4.5-3-4.3-6.4-12.6-7.7M383.1 1.8h42.1v6.9s-4.2-2.8-11.4-2.6c-6.9.2-20.2 3.1-20.2 3.1V32s8.7.2 12.1.2c8 .2 17.6-.6 17.6-.6v6.2s-9.8-.6-17.5-.3c-3.8.2-12.3.6-12.3.6v27.5c4.4.6 10.3 1.2 14.4 1.5 6.6.5 12.8.6 16.8-2.4 2.3-1.8 2.6-2 5.2-4.5-1.2 4.5-1.7 7.3-3.8 10.9-1 1.7-3.6 1.4-6.6 1.4h-36.6V1.9ZM105.6 64.7c-4 3-10.3 3.4-16.8 2.4-4.2-.6-4.6-.8-8.7-2.1V1.8H69.6v70.6h30.8c3 0 5.6.3 6.6-1.4 2.1-3.6 2.7-6.4 3.8-10.9-2.7 2.6-2.9 2.8-5.2 4.5M130.6 1.8H116s1.6 11.5 1.9 21.9c.6 19-.3 48.7-.3 48.7H129s-1-29.7-.3-48.7c.3-10.4 1.9-21.9 1.9-21.9M226.8 1.8h-14.6s1.6 11.5 1.9 21.9c.6 19-.3 48.7-.3 48.7h11.4s-1-29.7-.3-48.7c.3-10.4 1.9-21.9 1.9-21.9M355.5 71.6c-4 1.4-18.4 2.5-25.6.2-17.2-5.6-13.7-19.7-13.5-32.9.2-12.9 1-18.8-1.6-31.2-.5-2.2-.8-3.5-1.4-5.8h14.5c-1.1 18.5-.9 26-.7 46.2 0 8 1.3 15.1 8.4 18.3 5.2 2.4 15.4 1.9 21.1-1.1 9.5-5.1 6.7-26 7-49.1.2-10.6-1.3-11-4.2-14.3h10.9c-.5 16.8-.2 29.8.3 48.8.3 14-6 17.8-15.3 21" class="cls-1"/></g></svg>