<?xml version="1.0" encoding="UTF-8"?>
<svg xmlns="http://www.w3.org/2000/svg" version="1.1" xmlns:xlink="http://www.w3.org/1999/xlink" viewBox="0 0 4535.4 345.1">
  <defs>
    <style>
      .cls-1 {
        clip-path: url(#clippath-6);
      }

      .cls-2 {
        clip-path: url(#clippath-7);
      }

      .cls-3 {
        clip-path: url(#clippath-15);
      }

      .cls-4 {
        clip-path: url(#clippath-4);
      }

      .cls-5 {
        clip-path: url(#clippath-9);
      }

      .cls-6 {
        clip-path: url(#clippath-10);
      }

      .cls-7 {
        clip-path: url(#clippath-11);
      }

      .cls-8 {
        fill: none;
      }

      .cls-9 {
        clip-path: url(#clippath-1);
      }

      .cls-10 {
        clip-path: url(#clippath-5);
      }

      .cls-11 {
        clip-path: url(#clippath-8);
      }

      .cls-12 {
        clip-path: url(#clippath-3);
      }

      .cls-13 {
        clip-path: url(#clippath-12);
      }

      .cls-14 {
        clip-path: url(#clippath-14);
      }

      .cls-15 {
        clip-path: url(#clippath-2);
      }

      .cls-16 {
        clip-path: url(#clippath-13);
      }

      .cls-17 {
        clip-path: url(#clippath);
      }
    </style>
    <clipPath id="clippath">
      <rect class="cls-8" width="4535.4" height="345.1"/>
    </clipPath>
    <clipPath id="clippath-1">
      <rect class="cls-8" width="4535.4" height="345.1"/>
    </clipPath>
    <clipPath id="clippath-2">
      <rect class="cls-8" width="4535.4" height="345.1"/>
    </clipPath>
    <clipPath id="clippath-3">
      <rect class="cls-8" width="4535.4" height="345.1"/>
    </clipPath>
    <clipPath id="clippath-4">
      <rect class="cls-8" width="4535.4" height="345.1"/>
    </clipPath>
    <clipPath id="clippath-5">
      <rect class="cls-8" width="4535.4" height="345.1"/>
    </clipPath>
    <clipPath id="clippath-6">
      <rect class="cls-8" width="4535.4" height="345.1"/>
    </clipPath>
    <clipPath id="clippath-7">
      <rect class="cls-8" width="4535.4" height="345.1"/>
    </clipPath>
    <clipPath id="clippath-8">
      <rect class="cls-8" width="4535.4" height="345.1"/>
    </clipPath>
    <clipPath id="clippath-9">
      <rect class="cls-8" width="4535.4" height="345.1"/>
    </clipPath>
    <clipPath id="clippath-10">
      <rect class="cls-8" width="4535.4" height="345.1"/>
    </clipPath>
    <clipPath id="clippath-11">
      <rect class="cls-8" width="4535.4" height="345.1"/>
    </clipPath>
    <clipPath id="clippath-12">
      <rect class="cls-8" width="4535.4" height="345.1"/>
    </clipPath>
    <clipPath id="clippath-13">
      <rect class="cls-8" width="4535.4" height="345.1"/>
    </clipPath>
    <clipPath id="clippath-14">
      <rect class="cls-8" width="4535.4" height="345.1"/>
    </clipPath>
    <clipPath id="clippath-15">
      <rect class="cls-8" width="4535.4" height="345.1"/>
    </clipPath>
  </defs>
  <!-- Generator: Adobe Illustrator 28.7.1, SVG Export Plug-In . SVG Version: 1.2.0 Build 142)  -->
  <g>
    <g id="Calque_1">
      <g>
        <g class="cls-17">
          <path d="M1410,117.6v3l.5,6.5c0,30.9,159.2,31.6,159.2,90.8s-47.8,60.6-113.5,60.6-90.4-6.9-128.7-56.9l71-11.4c6.9,18.8,26.4,41.5,57.7,41.5s37-5.5,39.2-14.8c0-.6,1-3.2,1.4-6.1.4-3.8.1-6.8.1-7.3,0-38.2-156.9-29.1-156.9-96-.2-37.8,48.9-58.6,113.1-57.8,40.8.4,74.2,8.1,115.4,55.2l-65.9,9c-6.9-18.7-18.3-37.4-49.5-37.4s-31.9,3.8-41.6,14.8c-.3.2-1.4,3.5-1.5,6.4"/>
        </g>
        <g class="cls-9">
          <path d="M0,274.8V75.3h76.4v29.4c28.9-14.7,55.9-33,88.7-33,48,0,73.1,14.4,73.1,51.5v151.7h-78.8v-146.6c0-13.2-7.5-22-29-22s-34.5,9.2-51.5,17.9v150.6H0Z"/>
        </g>
        <g class="cls-15">
          <path d="M1696.2,221.1c0,15.5,18.9,30,46.6,30s46.1-14.6,46.1-30v-95.2c0-15.5-18.6-31.8-46.1-31.8s-46.6,16.3-46.6,31.8v95.2ZM1617.2,147.3c0-52.9,46.4-75.7,125.6-75.7s125.4,22.8,125.4,75.7v55.4c0,53-46.6,75.7-125.4,75.7s-125.6-22.7-125.6-75.7v-55.4Z"/>
        </g>
        <g class="cls-12">
          <path d="M2822.8,120.6c-15.7-9.9-30-14.3-47.8-14.3s-38.9,8-38.9,47.8v42.2c0,39.6,17.6,47.7,38.9,47.7s32.1-4.4,47.8-14.3v-109ZM2829.1,274.8v-25.8h-1.4c-13.6,12.5-48.9,29.4-84.1,29.4-61.2,0-86.4-27.9-86.4-79.4v-48.1c0-51.4,25.1-79.3,86.4-79.3s41.4,7.6,79.2,23.7V10h78.9v264.8h-72.5Z"/>
        </g>
        <g class="cls-4">
          <path d="M3459,283.7c-8.1,4.7-16.4,8.7-16.4,16.1s25.8,14.7,72.5,14.7,59.3-5.5,59.3-15.8-5.1-9.5-29-10.6l-86.4-4.4ZM3536.5,130.6c-1.2-23.7-14.8-37.8-41-37.8s-40.8,13.6-41.4,42.6c0,1-.1,24-.1,24.9,0,25,13.8,37.4,37.8,37.4s44.9-7.3,44.9-41.8c0-1.1,0-24.2,0-25.3M3653.5,112c-6.3-.7-18.3-2.9-24.5-2.9s-16.4,2.6-27,4.5c4.9,13.2,10,23.1,10,35.2,0,49.6-36.4,78.3-114,78.3s-20.8-.4-32.8-2.6c-4.3,3.7-13.8,7-13.8,11.7,0,25.1,198.3-13.5,198.3,58.9s-60.3,50-151.7,50-130.5-14-130.5-36,28.7-24.2,47.6-31.2c-18.9-6.7-32.7-15.4-32.7-28.2s28.3-26.5,47.8-33.5c-38.4-14.7-51.5-36-51.5-69.1s28.3-76.1,117-75.4c43.4.4,72.3,11.6,92.4,25.8,20.1-14.6,36.1-25.8,65.6-25.8v40.4Z"/>
        </g>
        <g class="cls-10">
          <path d="M3937,75.3v199.5h-76.8v-24.4c-28.5,14.7-55.5,28.1-88.3,28.1-48.4,0-73.5-14.3-73.5-51.4V75.3h79.2v146.7c0,13.2,7.5,21.9,28.8,21.9s34.5-9.1,51.1-18V75.3h79.3Z"/>
        </g>
        <g class="cls-1">
          <path d="M4171.4,156.1v-33.8c0-17.6-14.3-28.7-46.3-28.7s-46.4,11-46.4,28.7v33.8h92.7ZM4078.7,185.9v26.4c0,19.9,20,28.6,46.4,28.6s46.3-12.4,46.3-27.8h79.3c-3.9,41.1-45.9,65.3-125.5,65.3s-125.4-27.2-125.4-70.8v-65.1c0-43.7,50-70.9,125.4-70.9s125.5,27.2,125.5,68.1v46.3h-171.9Z"/>
        </g>
        <g class="cls-2">
          <polygon points="4308.6 75.3 4308.6 105.1 4451.6 105.1 4296 235.2 4296 274.8 4535.4 274.8 4535.4 245.8 4377.4 245.8 4535.4 115 4535.4 75.3 4308.6 75.3"/>
        </g>
        <g class="cls-11">
          <path d="M615,275.3V75.7h76.2v27.7c28.9-14.7,56.1-31.3,88.8-31.3,48,0,55.2,14.7,61.6,39.1l-67.2,17.4c0-13.1-7.6-22-28.9-22s-34.7,9.2-51.7,18.1v150.7h-78.8Z"/>
        </g>
        <g class="cls-5">
          <path d="M464,169.8c-47.1,9.5-94.9,32.4-94.9,53.3s13.9,20.9,35.2,20.9,40.9-3.2,59.7-14.3v-59.9ZM300.3,133.8c5.7-44.4,63.1-62,126.6-62s115.9,24.9,115.9,60.5v126.4c0,5.5,2,11,4.5,16.3h-78.8c-1.9-5.3-3.1-11.5-5.7-19.6-23.3,13.6-54.7,23.2-94.3,23.2s-78.2-15.5-78.2-47.8c0-46.2,75-66.1,173.7-83.1v-14.6c0-.8,0-16.9-.1-17.5-1.3-15.9-19-21.9-40.8-21.9s-41.5,9.1-43.8,22c-.1.9-.2,17.3-.2,18.1h-78.9Z"/>
        </g>
        <g class="cls-6">
          <path d="M1042.2,142.4v-8.7c0-15.5-5.4-39.6-46.6-39.9-42.2-.2-46.2,24.4-46.2,39.9v84.6c0,15.5,18.9,33.3,46.2,33.3s46.6-23.6,46.6-38.9v-12.4h79.2v.7c0,52.9-46.5,75.7-125.8,75.7s-125.4-22.8-125.4-75.7v-55.5c0-52.9,46.6-75.7,125.4-75.7s123.9,22.1,125.1,72.7h-78.5Z"/>
        </g>
        <g class="cls-7">
          <path d="M1192.5,275.6h79.3V76.1h-79.3v199.5ZM1192.5,29.2h79.3V0h-79.3v29.2Z"/>
        </g>
        <g class="cls-13">
          <path d="M2428.9,221.1c0,15.6,18.8,30,46.5,30s46.5-14.5,46.5-30v-95.2c0-15.5-18.9-31.8-46.5-31.8s-46.5,16.3-46.5,31.8v95.2ZM2350,147.3c0-52.9,46.5-75.6,125.4-75.6s125.4,22.7,125.4,75.6v55.4c0,53-46.1,75.8-125.4,75.8s-125.4-22.7-125.4-75.8v-55.4Z"/>
        </g>
        <g class="cls-16">
          <path d="M2098.4,275.7V76.2h76.9v27.6c28.9-14.6,55.9-31.3,88-31.3,48.5,0,55.9,14.7,62.2,39.2l-67.6,17.4c0-13.2-7.3-22-28.6-22s-34.6,9.2-51.6,17.9v150.7h-79.3Z"/>
        </g>
        <g class="cls-14">
          <path d="M2970.5,275.7V76.2h76.7v27.6c28.5-14.6,55.6-31.3,88.4-31.3,48.3,0,55.4,14.7,61.9,39.2l-67.7,17.4c0-13.2-7.5-22-28.8-22s-34.6,9.2-51.4,17.9v150.7h-79Z"/>
        </g>
        <g class="cls-3">
          <path d="M3232.8,275h79.2V75.4h-79.2v199.6ZM3232.8,29.6h79.2V.4h-79.2v29.3Z"/>
        </g>
      </g>
    </g>
  </g>
</svg>