<svg xmlns="http://www.w3.org/2000/svg" viewBox="0 0 567.1 90.8"><path d="M23.3 72.1c-4.5-7.2-7.4-17-7.4-26.5s2.4-18.1 6.7-25.7l.5-.9c4.3-8.6 14-14.5 23.4-14.5 6.2 0 12.8 1.8 17.9 4.4 9.3 5.7 16.6 14.3 20.7 24.6V17.9c0-3.5-5.3-7.3-5.3-7.3C70.7 4.1 59.5.3 47.4.2c-4.9 0-11.8 1.2-11.8 1.2C15.2 5.8 0 24 0 45.6s17.4 42.1 39.9 44.7c0 0 4.6.7 7.7.5 13.1 0 25.2-4.6 34.6-12.3l1.2-1.4c1.1-1.5 1.8-3.3 1.8-5.3V58.9c0-3.8 1.9-7.2 4.8-9.3H65.9c2.9 2.1 4.8 5.5 4.8 9.3l.2 12.1c0 2.4-1 4.6-2.6 6.2-2 2.2-9.5 6-9.5 6-3.7 2-7.9 3.1-12.3 3.1-10.1 0-18.9-5.7-23.2-14.1ZM268.9 45.4c0 21.6 15.2 39.4 35.6 43.7 0 0 6.9 1.3 11.8 1.3 12.1 0 23.1-3.8 32.2-10.5 0 0 5.5-3.4 5.5-6.9l2.1-16.5c-6.2 15.5-16.8 21.4-22.9 24.9-5.1 2.7-11.7 4.6-17.9 4.6-9.5 0-19.1-5.4-23.4-14l-.5-.9c-4.3-7.6-6.7-16.3-6.7-25.7s2.5-18.1 6.7-25.7l.5-.9c4.3-8.6 14-14.5 23.4-14.5 6.2 0 12.8 1.8 17.9 4.5 9.3 5.7 16.6 14.3 20.7 24.6V17.8c0-3.5-5.3-7.3-5.3-7.3-9-6.6-20.2-10.5-32.3-10.5s-11.8 1.3-11.8 1.3c-20.4 4.3-35.6 22.5-35.6 44.2M409.2 45.5c0 21.6 15.2 39.4 35.6 43.7 0 0 6.9 1.2 11.8 1.2 12.1 0 23.1-3.8 32.2-10.5 0 0 5.5-3.4 5.5-6.9l2.2-16.5c-6.2 15.5-16.8 21.4-22.9 24.9-5.1 2.7-11.7 4.6-17.9 4.6-9.4 0-19.1-5.4-23.4-14l-.5-.9c-4.3-7.6-6.7-16.3-6.7-25.7s2.5-18.1 6.7-25.7l.5-.9c4.3-8.6 14-14.5 23.4-14.5 6.2 0 12.8 1.8 17.9 4.4 9.3 5.7 16.6 14.3 20.7 24.6V17.7c0-3.5-5.3-7.3-5.3-7.3C479.9 3.9 468.7 0 456.6 0s-11.8 1.2-11.8 1.2c-20.4 4.3-35.6 22.5-35.6 44.1M566.9 3.9h-23.4c2.9 2 4.8 5.3 4.8 9.1v68.4c0 3.7-1.8 6.9-4.5 9h23c-2.7-2-4.5-5.3-4.5-9V13c0-3.8 1.9-7.1 4.8-9.1M161.6 3.9h-23.4c2.9 2 4.8 5.4 4.8 9.2v51.1c.8 9.4 6.7 17.3 14.8 21 6.7 3.3 14.1 5.2 22 5.2s15.6-1.7 22.4-5.1h.1c8.2-3.8 14-11.7 14.7-21.1V12.9c0-3.8 1.9-7 4.8-9h-13.7c2.9 2 4.8 5.2 4.8 9v51.5c-.6 5.6-3.3 10.6-7.5 14.1l-.2.2c-4.6 3.6-12.8 6.3-20.4 6.3s-9.3-1-13.5-2.6l-.4-.2c-7.5-2.6-13.1-9.7-14-17.9V13.2c0-3.8 1.9-7.2 4.8-9.2"/></svg>