<svg xmlns="http://www.w3.org/2000/svg" id="Calque_1" data-name="Calque 1" viewBox="0 0 665.04 103.38"><defs><style>.cls-1{stroke-width:0}</style></defs><path d="m78.79 67 17.42 9.97c-8.71 16.01-25.7 26.41-44.94 26.41C23.17 103.38 0 81.88 0 51.69S23.17 0 51.26 0C70.5 0 87.5 10.39 96.2 26.41l-17.42 9.97c-5.06-10.39-15.31-16.71-27.53-16.71-17.56 0-30.9 13.06-30.9 32.02s13.34 32.02 30.9 32.02c12.22 0 22.47-6.32 27.53-16.71ZM189.61 100.85V58.71h-49.16v42.14h-19.66V2.53h19.66v36.52h49.16V2.53h19.66v98.32zM342.7 100.85h-21.49l-9.69-22.48h-51.41l-9.69 22.48h-21.49l43.55-98.32h26.69l43.54 98.32Zm-39.04-40.73-17.84-41.43-17.84 41.43zM433.29 100.85l-52.67-77.39v77.39h-18.26V2.53h25.99l44.24 65.17V2.53h18.26v98.32zM488.77 100.85V2.53H559v18.26h-51.97v21.07h44.95v18.26h-44.95v22.47h54.78v18.26zM593.41 100.85V2.53h19.66v78.65h51.97v19.66h-71.63Z" class="cls-1"/></svg>