<svg xmlns="http://www.w3.org/2000/svg" id="Calque_1" viewBox="0 0 627 93.43"><defs><style>.cls-1{fill:#000100}</style></defs><path d="M503.96 16.05h-21.12v26.64h21.12c12.4 0 19.25-5.32 19.25-13.84 0-9.77-7.46-12.8-19.25-12.8m21.15 75.77-22.4-34.81h-19.87v34.81h-15.55V1.63h39.75c21.15 0 32.35 9.84 32.35 26.72 0 15.37-8.7 23.24-19.94 25.91l24.26 37.56H525.1M579.16 16.05H561.1v61.36h18.06c19.26 0 31.03-12.44 31.03-30.56s-11.77-30.81-31.03-30.81m0 75.78H545.6V1.63h33.56c29.2 0 47.84 18.76 47.84 44.96s-18.02 45.23-47.84 45.23M213.73 91.82l-24.19-64.69v64.69H174V1.63h22.37l21.77 57.96 22.32-57.96h22.36v90.19h-15.53v-64.8l-24.85 64.8zM120.57 14.58c-18.07 0-30.48 14.06-30.48 32.09s12.4 32.14 30.48 32.14 30.4-14.01 30.4-32.05-12.4-32.18-30.4-32.18m0 78.85c-27.34 0-47.28-20.68-47.28-46.67S93.23 0 120.57 0s47.22 20.69 47.22 46.67-19.25 46.76-47.22 46.76M413.87 14.58c-18.06 0-30.45 14.06-30.45 32.09s13.04 32.14 30.45 32.14 30.4-14.01 30.4-32.05-12.41-32.18-30.4-32.18m0 78.85c-27.32 0-47.25-20.68-47.25-46.67S386.55 0 413.87 0s47.21 20.69 47.21 46.67-19.23 46.76-47.21 46.76M46.58 91.82H31.1V16.05H0V1.63h77.06v14.42H46.58zM365.41 16.05h-51.6v26.64h47.83v14.4h-47.83v34.73h-15.53V1.63h67.13z" class="cls-1"/></svg>