<svg width="67" height="42" viewBox="0 0 67 42" fill="none" xmlns="http://www.w3.org/2000/svg">
<path d="M63.5 42H3.5C1.57673 41.9767 0.0232726 40.4233 0 38.5V3.5C0.0232726 1.57673 1.57673 0.0232726 3.5 0H63.5C65.4233 0.0232726 66.9767 1.57673 67 3.5V38.5C66.9767 40.4233 65.4233 41.9767 63.5 42Z" fill="white"/>
<path fill-rule="evenodd" clip-rule="evenodd" d="M3.5 42H63.5C65.4233 41.9767 66.9767 40.4233 67 38.5V3.5C66.9767 1.57673 65.4233 0.0232726 63.5 0H3.5C1.57673 0.0232726 0.0232726 1.57673 0 3.5V38.5C0.0232726 40.4233 1.57673 41.9767 3.5 42ZM1.725 1.725C2.19527 1.25473 2.83497 0.993445 3.5 1H63.5C64.165 0.993445 64.8047 1.25473 65.275 1.725C65.7453 2.19527 66.0066 2.83497 66 3.5V38.5C66.0066 39.165 65.7453 39.8047 65.275 40.275C64.8047 40.7453 64.165 41.0066 63.5 41H3.5C2.83497 41.0066 2.19527 40.7453 1.725 40.275C1.25473 39.8047 0.993445 39.165 1 38.5V3.5C0.993445 2.83497 1.25473 2.19527 1.725 1.725Z" fill="white"/>
<path fill-rule="evenodd" clip-rule="evenodd" d="M15.5979 17.1914L13.832 19.61H23.4562C23.9427 19.61 23.9364 19.7964 23.6986 20.1211C23.4572 20.4509 23.053 21.0241 22.8071 21.3588C22.6822 21.5288 22.4565 21.8386 23.2044 21.8386H27.1401C27.1401 21.8386 27.7745 20.9682 28.3063 20.2406C29.0298 19.2509 28.3689 17.1914 25.7827 17.1914H15.5979" fill="#E30017"/>
<path fill-rule="evenodd" clip-rule="evenodd" d="M13.1172 25.0714L16.6641 20.2129H21.0657C21.5522 20.2129 21.5457 20.3992 21.3079 20.724C21.0665 21.0537 20.6557 21.6209 20.4097 21.9558C20.2849 22.1257 20.0592 22.4357 20.807 22.4357H26.7036C25.5801 24.0601 23.7411 25.0417 21.7663 25.0714H13.1172Z" fill="#E30017"/>
<path fill-rule="evenodd" clip-rule="evenodd" d="M33.4307 22.4355L31.5074 25.0718H26.4336L28.3576 22.4361L33.4307 22.4355" fill="#E30017"/>
<path fill-rule="evenodd" clip-rule="evenodd" d="M41.203 21.8384H28.793L32.186 17.1914H37.259L35.314 19.8564H37.578L39.524 17.1914H44.595L41.203 21.8384Z" fill="#E30017"/>
<path fill-rule="evenodd" clip-rule="evenodd" d="M40.7659 22.4355L38.8415 25.0712H33.7695L35.6938 22.4355H40.7659Z" fill="#E30017"/>
<path fill-rule="evenodd" clip-rule="evenodd" d="M51.6194 17.1914L48.2263 21.8386H42.8516L46.2473 17.1914H51.6194Z" fill="#E30017"/>
<path fill-rule="evenodd" clip-rule="evenodd" d="M42.4161 22.4355C42.4163 22.4355 42.0455 22.9463 41.8652 23.1919C41.228 24.0599 41.7915 25.0712 43.8705 25.0712H52.0164L53.9405 22.4355H42.4161Z" fill="#E30017"/>
</svg>
