<svg width="100" height="30" viewBox="0 0 100 30" fill="none" xmlns="http://www.w3.org/2000/svg">
<path fill-rule="evenodd" clip-rule="evenodd" d="M3.70314 0H96.2924C97.2747 0 98.2167 0.390196 98.9112 1.08475C99.6058 1.7793 99.996 2.72132 99.996 3.70356V25.9216C99.996 27.967 98.3379 29.6252 96.2924 29.6252H3.70356C1.65814 29.6252 0 27.967 0 25.9216V3.70314C2.76142e-06 1.65795 1.65795 2.76142e-06 3.70314 0Z" fill="black"/>
<path fill-rule="evenodd" clip-rule="evenodd" d="M3.70356 0H96.2924C98.3353 0.00586766 99.9899 1.66032 99.996 3.70315V25.922C99.9899 27.9648 98.3353 29.6193 96.2924 29.6252H3.70356C1.66073 29.6193 0.00609382 27.9648 0 25.922V3.70315C0.00609382 1.66032 1.66073 0.00586766 3.70356 0ZM99.4041 3.70273C99.4022 1.98545 98.0105 0.593827 96.2932 0.591937H3.70431C1.987 0.593788 0.595281 1.98542 0.593313 3.70273V25.9216C0.595308 27.6389 1.98702 29.0305 3.70431 29.0324H96.2932C98.0105 29.0305 99.4021 27.6389 99.4041 25.9216V3.70273Z" fill="#A6A6A6"/>
<path d="M35.134 7.77597C35.1612 8.32498 34.9618 8.86108 34.5823 9.2588C34.1568 9.70017 33.5632 9.93922 32.9505 9.91601C31.6872 9.92732 30.654 8.91239 30.6427 7.6491C30.6425 7.63137 30.6426 7.61364 30.6428 7.59592C30.6249 6.33237 31.6347 5.29354 32.8982 5.27562C32.9157 5.27537 32.9331 5.27533 32.9505 5.27548C33.264 5.27453 33.5743 5.3379 33.8623 5.46167C34.1297 5.57009 34.3678 5.74015 34.5571 5.95801L34.1666 6.34876C33.8651 5.99381 33.4157 5.79906 32.9505 5.82168C32.0022 5.81678 31.2295 6.58156 31.2246 7.52986C31.2245 7.55188 31.2248 7.5739 31.2255 7.5959C31.2102 8.56037 31.9796 9.35468 32.944 9.37004C33.4092 9.37745 33.8581 9.19897 34.1912 8.87417C34.4191 8.62856 34.5513 8.30923 34.5635 7.97436H32.9505V7.44084H35.1029C35.1233 7.5514 35.1337 7.66355 35.134 7.77597Z" fill="white" stroke="white" stroke-width="0.2" stroke-miterlimit="10"/>
<path d="M38.5465 5.92088H36.5236V7.32923H38.3477V7.86286H36.5236V9.27122H38.5465V9.81708H35.9531V5.375H38.5465V5.92088Z" fill="white" stroke="white" stroke-width="0.2" stroke-miterlimit="10"/>
<path d="M40.9525 9.81708H40.3813V5.92088H39.1406V5.375H42.1931V5.92086H40.9525V9.81708Z" fill="white" stroke="white" stroke-width="0.2" stroke-miterlimit="10"/>
<path d="M44.4004 9.81708V5.375H44.9708V9.81705L44.4004 9.81708Z" fill="white" stroke="white" stroke-width="0.2" stroke-miterlimit="10"/>
<path d="M47.5051 9.81708H46.934V5.92088H45.6934V5.375H48.7458V5.92086H47.5051V9.81708Z" fill="white" stroke="white" stroke-width="0.2" stroke-miterlimit="10"/>
<path d="M54.5233 9.2428C53.6231 10.1403 52.1664 10.1403 51.2662 9.2428C50.8341 8.80509 50.598 8.21079 50.6119 7.59584C50.598 6.98089 50.8341 6.38659 51.2662 5.94888C52.1638 5.05106 53.6193 5.05087 54.5171 5.94845C54.5182 5.94956 54.5193 5.95066 54.5204 5.95176C54.9529 6.38831 55.19 6.98147 55.1776 7.59584C55.1912 8.21072 54.9551 8.80488 54.5233 9.2428ZM51.6877 8.87086C52.3545 9.53648 53.4343 9.53648 54.1011 8.87086C54.4329 8.53113 54.6113 8.07045 54.5949 7.59584C54.6113 7.12123 54.4329 6.66055 54.1011 6.32082C53.4343 5.6552 52.3545 5.6552 51.6877 6.32082C51.3564 6.66081 51.1783 7.12138 51.1946 7.59584C51.1783 8.0703 51.3564 8.53087 51.6877 8.87086Z" fill="white" stroke="white" stroke-width="0.2" stroke-miterlimit="10"/>
<path d="M55.9785 9.81708V5.375H56.6733L58.8322 8.83055H58.8568L58.8322 7.97449V5.375H59.4033V9.81705H58.8076L56.549 6.19411H56.5244L56.549 7.05017V9.81707L55.9785 9.81708Z" fill="white" stroke="white" stroke-width="0.2" stroke-miterlimit="10"/>
<path d="M50.4712 16.2959C48.7321 16.3025 47.3277 17.7176 47.3343 19.4566C47.3409 21.1956 48.756 22.6 50.495 22.5934C52.2294 22.5869 53.6319 21.179 53.6319 19.4446C53.6571 17.7307 52.2881 16.3209 50.5741 16.2957C50.5398 16.2952 50.5055 16.2952 50.4712 16.2959ZM50.4712 21.353C49.4172 21.4282 48.5019 20.6347 48.4267 19.5807C48.3516 18.5268 49.145 17.6115 50.199 17.5363C51.2529 17.4612 52.1683 18.2546 52.2434 19.3086C52.2466 19.3539 52.2483 19.3992 52.2483 19.4446C52.2964 20.4496 51.5208 21.3033 50.5158 21.3514C50.501 21.3521 50.4861 21.3527 50.4712 21.353ZM43.576 16.2959C41.837 16.3024 40.4326 17.7175 40.4391 19.4565C40.4457 21.1955 41.8607 22.6 43.5998 22.5934C45.3342 22.5869 46.7367 21.179 46.7367 19.4446C46.7619 17.7307 45.3929 16.3209 43.679 16.2957C43.6447 16.2952 43.6104 16.2952 43.576 16.2959ZM43.576 21.353C42.5221 21.4282 41.6068 20.6347 41.5316 19.5807C41.4565 18.5268 42.2499 17.6115 43.3039 17.5363C44.3578 17.4612 45.2732 18.2546 45.3483 19.3086C45.3515 19.3539 45.3532 19.3992 45.3532 19.4446C45.4013 20.4495 44.6258 21.3032 43.6208 21.3514C43.6059 21.3521 43.591 21.3527 43.576 21.353ZM35.3739 17.262V18.5978H38.5705C38.5244 19.2244 38.268 19.817 37.8429 20.2796C37.1951 20.9399 36.2981 21.2952 35.3739 21.2576C33.4109 21.2309 31.8412 19.618 31.8679 17.655C31.894 15.7296 33.4485 14.1751 35.3739 14.149C36.2714 14.1372 37.1372 14.4801 37.7833 15.1031L38.7255 14.1609C37.835 13.2792 36.6269 12.7934 35.3739 12.8131C32.6731 12.7738 30.4519 14.9314 30.4126 17.6322C30.3734 20.333 32.531 22.5542 35.2317 22.5934C35.2791 22.5941 35.3265 22.5941 35.3739 22.5934C36.6551 22.6466 37.8974 22.1471 38.7852 21.2218C39.5643 20.3714 39.9796 19.2497 39.9422 18.0969C39.9452 17.8169 39.9212 17.5374 39.8705 17.262H35.3739ZM68.9176 18.2996C68.5299 17.1312 67.4525 16.3304 66.222 16.2959C64.5694 16.3061 63.2379 17.6541 63.2482 19.3068C63.2485 19.3528 63.2498 19.3987 63.2522 19.4446C63.2147 21.146 64.5636 22.5556 66.2649 22.593C66.3023 22.5939 66.3397 22.594 66.3771 22.5935C67.4308 22.5993 68.4168 22.0749 69.001 21.198L67.9276 20.4824C67.6005 21.0257 67.0113 21.3565 66.3771 21.353C65.7207 21.3781 65.1155 20.9999 64.8504 20.3989L69.0608 18.6575L68.9176 18.2996ZM64.6238 19.3493C64.5622 18.3975 65.2839 17.5759 66.2357 17.5143C66.247 17.5136 66.2583 17.513 66.2697 17.5125C66.7581 17.4803 67.2183 17.7433 67.4386 18.1804L64.6238 19.3493ZM61.2006 22.4026H62.5842V13.1471H61.2006V22.4026ZM58.9344 16.9996H58.8868C58.4612 16.5372 57.857 16.2808 57.2288 16.2959C55.4898 16.3699 54.1401 17.8397 54.2142 19.5788C54.2838 21.214 55.5936 22.5238 57.2288 22.5934C57.8598 22.6102 58.4662 22.3485 58.8868 21.8778H58.9344V22.3311C58.9344 23.5358 58.2904 24.1798 57.2527 24.1798C56.5453 24.1628 55.9184 23.7198 55.6664 23.0586L54.4617 23.5596C54.9262 24.6904 56.0302 25.4264 57.2527 25.4202C58.8748 25.4202 60.2465 24.4661 60.2465 22.1402V16.4867H58.9344V16.9996ZM57.3482 21.353C56.2942 21.2636 55.5123 20.3368 55.6016 19.2828C55.6805 18.3529 56.4182 17.6152 57.3482 17.5363C58.327 17.5841 59.0817 18.4163 59.0339 19.3951C59.0329 19.4156 59.0316 19.4361 59.0299 19.4565C59.1063 20.4253 58.3829 21.2726 57.4141 21.349C57.3921 21.3508 57.3702 21.3521 57.3482 21.353ZM75.3985 13.1473H72.0882V22.4026H73.4695V18.896H75.3985C76.9859 18.9831 78.3434 17.7667 78.4305 16.1793C78.5175 14.5918 77.3012 13.2343 75.7137 13.1473C75.6087 13.1415 75.5035 13.1415 75.3985 13.1473H75.3985ZM75.4342 17.608H73.4695V14.4354H75.4342C76.3103 14.4173 77.0351 15.1129 77.0532 15.9889C77.0713 16.865 76.3757 17.5899 75.4996 17.608C75.4778 17.6084 75.456 17.6084 75.4342 17.608H75.4342ZM83.9716 16.2788C82.9412 16.2187 81.9733 16.7751 81.5067 17.6958L82.7332 18.2078C82.9817 17.7509 83.4771 17.4845 83.9953 17.5291C84.725 17.4578 85.3747 17.9904 85.448 18.7198V18.815C85.0044 18.5793 84.5096 18.4567 84.0073 18.4578C82.6856 18.4578 81.3401 19.1842 81.3401 20.5416C81.3401 21.7799 82.4236 22.5777 83.6381 22.5777C84.3465 22.6194 85.0216 22.2727 85.4004 21.6727H85.448V22.3872H86.7816V18.8389C86.7816 17.1957 85.5552 16.2788 83.9716 16.2788L83.9716 16.2788ZM83.8048 21.3512C83.3523 21.3512 82.7213 21.125 82.7213 20.5654C82.7213 19.851 83.5071 19.5771 84.1859 19.5771C84.6267 19.5653 85.0626 19.6723 85.448 19.8867C85.3431 20.7168 84.6415 21.3421 83.8049 21.3512L83.8048 21.3512ZM91.6397 16.4812L90.0561 20.4939H90.0084L88.3653 16.4813H86.8769L89.3416 22.0895L87.9366 25.2092H89.3773L93.1757 16.4813L91.6397 16.4812ZM79.1968 22.4026H80.578V13.1473H79.1968V22.4026Z" fill="white"/>
<path d="M7.75159 5.77445C7.50881 6.06472 7.38622 6.43683 7.40894 6.81456V23.1881C7.38616 23.5658 7.50875 23.9379 7.75159 24.2282L7.80637 24.2815L16.9785 15.1095V14.8931L7.80637 5.7207L7.75159 5.77445Z" fill="url(#paint0_linear_7443_46360)"/>
<path d="M20.0357 18.167L16.9785 15.1083V14.8919L20.0364 11.834L20.1054 11.8733L23.7277 13.9315C24.7624 14.5193 24.7624 15.4812 23.7277 16.0694L20.1054 18.1276L20.0357 18.167Z" fill="url(#paint1_linear_7443_46360)"/>
<path d="M20.1076 18.1271L16.9808 15L7.75391 24.2268C8.09504 24.5879 8.65801 24.6326 9.29241 24.2723L20.1076 18.1271Z" fill="url(#paint2_linear_7443_46360)"/>
<path d="M20.1076 11.8745L9.29241 5.72932C8.65801 5.36899 8.09505 5.41371 7.75391 5.77477L16.9808 15.0017L20.1076 11.8745Z" fill="url(#paint3_linear_7443_46360)"/>
<path opacity="0.2" d="M20.0387 18.0586L9.29241 24.1644C8.855 24.4974 8.25 24.5006 7.80906 24.1723L7.75391 24.2275L7.80869 24.2809L7.80906 24.2805C8.24994 24.609 8.85507 24.6058 9.29241 24.2726L20.1076 18.1274L20.0387 18.0586Z" fill="black"/>
<path opacity="0.12" d="M7.75157 24.1202C7.50882 23.8299 7.38623 23.4578 7.40892 23.0801V23.1882C7.38622 23.566 7.50881 23.9381 7.75157 24.2284L7.80672 24.1732L7.75157 24.1202Z" fill="black"/>
<path opacity="0.12" d="M23.7284 15.9624L20.0371 18.0599L20.106 18.1288L23.7284 16.0706C24.1623 15.8822 24.4596 15.4729 24.5045 15.002C24.4116 15.4265 24.124 15.7825 23.7284 15.9624Z" fill="black"/>
<path opacity="0.25" d="M9.2913 5.83786L23.7289 14.0408C24.1246 14.2208 24.4123 14.5769 24.505 15.0017C24.4604 14.5305 24.1631 14.1209 23.7289 13.9327L9.2913 5.72968C8.25659 5.14178 7.41016 5.63011 7.41016 6.81524V6.92341C7.41016 5.73835 8.25659 5.25002 9.2913 5.83786Z" fill="white"/>
<defs>
<linearGradient id="paint0_linear_7443_46360" x1="16.1651" y1="6.64192" x2="3.74036" y2="19.0667" gradientUnits="userSpaceOnUse">
<stop stop-color="#00A0FF"/>
<stop offset="0.00657" stop-color="#00A1FF"/>
<stop offset="0.2601" stop-color="#00BEFF"/>
<stop offset="0.5122" stop-color="#00D2FF"/>
<stop offset="0.7604" stop-color="#00DFFF"/>
<stop offset="1" stop-color="#00E3FF"/>
</linearGradient>
<linearGradient id="paint1_linear_7443_46360" x1="25.0749" y1="15.0005" x2="7.16089" y2="15.0005" gradientUnits="userSpaceOnUse">
<stop stop-color="#FFE000"/>
<stop offset="0.4087" stop-color="#FFBD00"/>
<stop offset="0.7754" stop-color="#FFA500"/>
<stop offset="1" stop-color="#FF9C00"/>
</linearGradient>
<linearGradient id="paint2_linear_7443_46360" x1="18.4086" y1="16.6992" x2="1.55966" y2="33.5481" gradientUnits="userSpaceOnUse">
<stop stop-color="#FF3A44"/>
<stop offset="1" stop-color="#C31162"/>
</linearGradient>
<linearGradient id="paint3_linear_7443_46360" x1="5.43066" y1="0.324503" x2="12.9544" y2="7.84825" gradientUnits="userSpaceOnUse">
<stop stop-color="#32A071"/>
<stop offset="0.0685" stop-color="#2DA771"/>
<stop offset="0.4762" stop-color="#15CF74"/>
<stop offset="0.8009" stop-color="#06E775"/>
<stop offset="1" stop-color="#00F076"/>
</linearGradient>
</defs>
</svg>
