<svg width="67" height="42" viewBox="0 0 67 42" fill="none" xmlns="http://www.w3.org/2000/svg">
<rect width="67" height="42" rx="4" fill="white"/>
<g clip-path="url(#clip0_9380_49686)">
<path d="M19 9.85322V31.1468C19 32.166 19.834 33 20.8532 33H33.5756C43.1938 33 47.3636 27.6164 47.3636 20.4722C47.3636 13.3651 43.1938 8 33.5756 8H20.8532C19.834 8 19 8.83395 19 9.85322Z" fill="white"/>
<path d="M27.5156 13.2251V28.959H34.3633C40.5809 28.959 43.2773 25.4471 43.2773 20.4805C43.2773 15.727 40.5809 12.0391 34.3633 12.0391H28.7017C28.0438 12.0391 27.5156 12.5765 27.5156 13.2251Z" fill="#CC0066"/>
<path d="M33.5772 31.3044H22.5135C21.5313 31.3044 20.7344 30.5075 20.7344 29.5253V11.4842C20.7344 10.502 21.5313 9.70508 22.5135 9.70508H33.5772C44.0757 9.70508 45.6417 16.4601 45.6417 20.4816C45.6417 27.459 41.3515 31.3044 33.5772 31.3044ZM22.5135 10.2981C21.8556 10.2981 21.3274 10.8263 21.3274 11.4842V29.5253C21.3274 30.1832 21.8556 30.7114 22.5135 30.7114H33.5772C40.9716 30.7114 45.0487 27.079 45.0487 20.4816C45.0487 11.6232 37.8582 10.2981 33.5772 10.2981H22.5135Z" fill="black"/>
<path d="M29.9233 18.3589C30.1643 18.3589 30.3867 18.3959 30.5998 18.4701C30.8129 18.5442 30.9889 18.6647 31.1465 18.8129C31.2947 18.9704 31.4152 19.165 31.5079 19.3874C31.5912 19.6191 31.6376 19.8878 31.6376 20.2028C31.6376 20.4808 31.6005 20.731 31.5356 20.9627C31.4615 21.1943 31.3596 21.3982 31.2206 21.565C31.0816 21.7317 30.9056 21.8615 30.6924 21.9634C30.4793 22.0561 30.2291 22.1117 29.9419 22.1117H28.3203V18.3496H29.9233V18.3589ZM29.8678 21.426C29.9882 21.426 30.0994 21.4074 30.2199 21.3704C30.3311 21.3333 30.433 21.2684 30.5164 21.1758C30.5998 21.0831 30.6739 20.9719 30.7295 20.8237C30.7851 20.6754 30.8129 20.5086 30.8129 20.2955C30.8129 20.1102 30.7944 19.9341 30.7573 19.7859C30.7202 19.6376 30.6554 19.4986 30.572 19.3967C30.4886 19.2948 30.3774 19.2021 30.2384 19.1465C30.0994 19.0909 29.9326 19.0631 29.7288 19.0631H29.1357V21.4352H29.8678V21.426Z" fill="white"/>
<path d="M34.9834 18.3589V19.0538H33.0005V19.86H34.8259V20.4993H33.0005V21.4167H35.0297V22.1117H32.1758V18.3496H34.9834V18.3589Z" fill="white"/>
<path d="M37.8185 18.3594L39.227 22.1214H38.3652L38.078 21.2875H36.6695L36.373 22.1214H35.5391L36.9568 18.3594H37.8185ZM37.8649 20.6666L37.3923 19.286H37.383L36.8919 20.6666H37.8649Z" fill="white"/>
<path d="M40.5708 18.3594V21.4265H42.4055V22.1214H39.7461V18.3594H40.5708Z" fill="white"/>
<path d="M24.4203 21.9733C25.3773 21.9733 26.153 21.1976 26.153 20.2406C26.153 19.2836 25.3773 18.5078 24.4203 18.5078C23.4633 18.5078 22.6875 19.2836 22.6875 20.2406C22.6875 21.1976 23.4633 21.9733 24.4203 21.9733Z" fill="black"/>
<path d="M25.7278 28.9605C24.273 28.9605 23.1055 27.7837 23.1055 26.3382V24.2904C23.1055 23.5676 23.6892 22.9746 24.4213 22.9746C25.144 22.9746 25.737 23.5584 25.737 24.2904V28.9605H25.7278Z" fill="black"/>
</g>
<defs>
<clipPath id="clip0_9380_49686">
<rect width="28.3636" height="25" fill="white" transform="translate(19 8)"/>
</clipPath>
</defs>
</svg>
